<?xml version="1.0" encoding="UTF-8"?>
<svg id="Vrstva_1" xmlns="http://www.w3.org/2000/svg" version="1.1" viewBox="0 0 266.21 361.07">
  <!-- Generator: Adobe Illustrator 30.2.1, SVG Export Plug-In . SVG Version: 2.1.1 Build 1)  -->
  <path d="M231.45,216.03v-73.73l23.05-24.49h-68.03l23.05,23.05v75.17c-4.87,1.2-9.43,3.19-13.55,5.82l-62.77-62.77c8.99-4.45,16.39-11.64,21.11-20.47,11.3,3.46,20.21-4.81,20.21-4.81-8.47-.17-13.01-7.22-15.01-11.51.26-2.02.41-4.07.41-6.15,0-9.67-2.89-18.67-7.84-26.21,10.65-1.5,18.85-10.62,18.85-21.69h-100.28v21.93c5.57,0,10.11,4.53,10.11,10.11s-4.53,10.11-10.11,10.11v21.93c17.66,0,32.04-14.37,32.04-32.03,0-3.53-.58-6.93-1.64-10.11h10.98c14.32,0,25.97,11.65,25.97,25.97s-11.65,25.97-25.97,25.97h0c-12.56.01-24.4,3.13-34.82,8.6l-40.57-40.57c-1.65-4.4-3.54-12.74,2.4-18.94,0,0-16.42.61-19.8,16.79-16.17,3.38-16.79,19.8-16.79,19.8,5.83-5.6,13.56-4.24,18.12-2.69l38.7,38.7c-8.92,8.79-15.67,19.77-19.35,32.07h-23.6c-4.31-2.18-10.5-6.67-10.66-14.59,0,0-11.18,12.04-2.13,25.87-9.05,13.83,2.13,25.87,2.13,25.87.18-8.77,7.73-13.34,11.96-15.21h41.28v-5.17c1.17-13.01,7.02-24.69,15.86-33.33l72.81,72.81c-8.99,8.9-14.33,21.18-14.33,34.24,0,9.12,2.52,17.85,7.23,25.4l-15.24,15.22c-4.44,1.63-12.66,3.43-18.79-2.45,0,0,.61,16.42,16.79,19.8,3.38,16.18,19.8,16.79,19.8,16.79-5.65-5.89-4.22-13.72-2.64-18.26l30.23-30.2-7.76-7.76c-4.95-4.95-7.68-11.53-7.68-18.54s2.95-13.88,7.9-18.74l23.58,23.58c8.37,9.2,20.44,14.99,33.83,14.99,25.21,0,45.73-20.51,45.73-45.73,0-21.44-14.83-39.46-34.76-44.39ZM176.07,249.56l-82.3-82.3c4.3-1.57,8.85-2.6,13.58-3.02l73.46,73.46c-2.11,3.66-3.72,7.64-4.75,11.85ZM220.48,284.22c-6.09,0-11.64-2.32-15.86-6.1l-1.84-1.84c-3.78-4.21-6.1-9.76-6.1-15.86,0-13.12,10.68-23.8,23.8-23.8s23.8,10.68,23.8,23.8-10.68,23.8-23.8,23.8Z"/>
  <path d="M210.88,107.41h19.2s4.07-14.52,16.27-14.77c0,0-8.13-7.54-18.7-5.21,3.35-12.84-7.17-23.94-7.17-23.94,0,0-10.52,11.1-7.17,23.94-10.57-2.33-18.7,5.21-18.7,5.21,12.2.25,16.27,14.77,16.27,14.77Z"/>
  <path d="M69.37,40.56l1.27,13.28h89.19l1.27-13.28c4.1-3.38,3.14-12.31,3.14-12.31-6.28,1.93-10.62-1.69-10.62-1.69l-6.5-4.13c-1.86,3.73-5.7,6.31-10.15,6.31-6.27,0-11.35-5.08-11.35-11.35,0-2.67.93-5.12,2.47-7.06l-.29-.19c-7.24-.48-12.56-10.14-12.56-10.14,0,0-5.32,9.66-12.56,10.14l-.29.19c1.54,1.94,2.47,4.39,2.47,7.06,0,6.27-5.08,11.35-11.35,11.35-4.45,0-8.3-2.57-10.15-6.31l-6.5,4.13s-4.35,3.62-10.62,1.69c0,0-.97,8.93,3.14,12.31Z"/>
  <path d="M86.48,209.24l-11-11s-8.25,16.87-1.25,23.24h0c-10.88,5.43-11.35,17.94-11.35,17.94,7.77-7.46,18.92-2.58,21.43-1.33l19.56,19.56c-2.42,6.27-4.06,12.76-4.91,19.43h-29.27c-4.31-2.03-11.19-6.57-11.36-14.94,0,0-11.18,12.04-2.13,25.87-9.05,13.83,2.13,25.87,2.13,25.87.17-8.28,6.91-12.81,11.22-14.87h50.65v-10.96c0-9.83,2.2-19.24,6.54-27.97l3.51-7.06-43.78-43.78Z"/>
</svg>