<?xml version="1.0" encoding="UTF-8"?>
<svg id="Vrstva_1" xmlns="http://www.w3.org/2000/svg" version="1.1" viewBox="0 0 276.62 402.56">
  <!-- Generator: Adobe Illustrator 30.2.1, SVG Export Plug-In . SVG Version: 2.1.1 Build 1)  -->
  <defs>
    <style>
      .st0 {
        fill: #191919;
        stroke: #1d1d1b;
        stroke-miterlimit: 10;
      }
    </style>
  </defs>
  <g>
    <g>
      <path class="st0" d="M7.17,135.66c5.15-27.22,13.48-52.76,26.2-77.4,6.56-12.03,15.54-24.41,26.19-33.18,3.03-2.41,4.59-3.57,7.83-5.81,12.78-10.57,2.39,20.48,2,21.59-2.9,7.62-5.6,15.32-7.95,23.12-4.4,1-6.59,1.6-10.9,2.91,2.18-6.73,3.4-10.04,5.96-16.56,3.95-10.06,4.41-12.88-.14-10.5-1.89.99-2.82,1.49-4.65,2.53-5.59,3.28-8.62,9.51-11.2,15.2-10.11,23.22-16.85,46.84-20.76,71.85-1.39,9.91-.31,13.23,5.23,13.26,2.3.01,3.45.03,5.76.08,5.56.12,6.69-3.46,7.53-14.23.55-6.97.94-10.46,1.95-17.4,4.6-.43,6.91-.59,11.56-.79-.96,8.07-1.55,16.19-1.76,24.32-.13,10.78-1.04,32.38-17.16,30.1-4.48-.5-6.72-.72-11.2-1.09-14.59-.97-16.74-16.44-14.49-27.99Z"/>
      <path class="st0" d="M103.88,3.34c5.03-1.36,7.59-1.91,12.79-2.74-3.13,28.87-11.51,56.68-12.93,85.83-1.53,31.45,4.09,60.95,11.5,91.36-5.56-1.14-8.37-1.67-13.92-2.77-2.55-11.32-5.02-22.64-7.03-34.07-6.69-1.02-13.41-1.93-20.13-2.68-.82,10.41-1.03,20.89-1.3,31.32-5.45-.98-8.17-1.45-13.62-2.32,1.82-27.7,4.96-54.72,12.67-81.47,8.21-28.5,22-54.63,31.95-82.45ZM91.97,114.41c-.53-17.76.44-35.01,2.82-52.61,1.25-7.45,2.67-14.78,4.24-22.16-3.09,7.36-6.05,14.78-8.71,22.31-5.68,16.88-10.17,33.73-13.43,51.23,5.99.36,9.01.61,15.08,1.23Z"/>
    </g>
    <g>
      <path class="st0" d="M26,331.18C10.96,297.2,3.6,261.71,1.01,224.75c-.25-8.05-3.34-36.66,9.38-38.56,2.43.15,3.64.24,6.05.46,11.51,3.56,9.98,32.83,10.58,41.61,2.69,38.32,8.9,75.98,19.66,112.88.89,2.9,10.63,30.13,7.22,30.36-1.41-1.2-2.11-1.8-3.49-3.04-10.3-10.63-17.86-24.15-24.41-37.28ZM41.4,346.64c2.44,1.34,1.17-2.38-2.85-14.95-9.69-31.77-15.5-64.11-18.3-97.19-.26-4.99.33-16.25-5.04-19.13-1.36-.17-2.03-.25-3.39-.41-5.36,3.34-3.5,11.87-3.01,17.84,2.82,32.52,9.12,64.01,20.29,94.72,2.33,6.06,4.65,13.4,9.78,17.72,1.01.56,1.51.85,2.52,1.4Z"/>
      <path class="st0" d="M35.74,191.15c2.81.48,4.2.74,7,1.3.8,55.14,8.18,110.09,20.33,163.85,4.94,2.17,7.45,3.2,12.56,5.14,1.37,8.92,2.8,17.82,4.28,26.72-6.09-3.17-9.02-4.94-14.66-8.78-20.23-60.26-29.13-124.78-29.52-188.22Z"/>
      <path class="st0" d="M65.56,197.74c5.62,1.47,8.42,2.26,14.02,3.87,11.82,6.15,12.13,32.41,13.57,43.45.98,8.29,2.01,16.58,3.04,24.87.91,8.8,2.42,18.55-.2,27.23,5.15,9.33,6.14,20.36,7.16,30.76.81,10.56,1.26,21.15,1.53,31.74,0,7.57,2.44,33.52-7.98,35.87-4.53-1.64-6.73-2.55-11.03-4.54-6.87-64.36-16.99-128.55-20.1-193.24ZM86.27,281.71c5.23-2.27,2.59-13.06,1.91-17.69-.62-5.25-.93-7.88-1.53-13.16-.7-5.65-.42-16.42-6-19.98-2.43-.62-3.64-.93-6.07-1.54,1.54,17,3.41,33.95,5.39,50.9,2.51.6,3.77.89,6.29,1.48ZM94.86,367.84c5.07-2.44,2.84-12.58,2.68-17.19-.38-6.73-.82-13.47-1.37-20.19-.3-5.47-.21-16.36-5.8-19.63-2.81-.66-4.21-.99-7-1.68,2.12,18.94,3.94,37.89,5.52,56.88,2.37.75,3.56,1.11,5.97,1.8Z"/>
      <path class="st0" d="M98.18,207.19c5.31,1.63,8.03,2.49,13.31,4.11,11.75,6.08,13.41,29.98,15.38,41.13,1.47,8.95,2.89,17.9,4.18,26.87,1.38,11.15,4.11,25.73-.94,36.48,4,28.11,4.96,55.58-1.94,83.3-1.28,1.97-1.8,2.43-3.43,2.82,4.7-28.32,2.94-56.15-1.44-84.41-1.72-.28-2.75-.47-4.39-.76,2.06,28.29,1.88,56.25-2.34,84.33-2.31-.46-3.45-.72-5.71-1.27,6.97-64.76-5.52-128.47-12.7-192.61ZM121.83,289.21c5.08-2.55,2.24-12.98,1.4-17.64-.78-5.11-1.18-7.67-2-12.79-.75-5.47-1.33-15.98-6.83-19.22-2.15-.53-3.35-.83-5.51-1.39,2.35,16.63,4.81,33.25,6.98,49.9,2.29.45,3.68.73,5.96,1.12Z"/>
    </g>
  </g>
  <g>
    <g>
      <path class="st0" d="M146.84,6.11c9.45-6.07,26.15,1.56,35.76,4.89.9,8.75,1.66,17.52,2.23,26.29-9.79-2.32-19.53-4.17-29.48-5.66-1.23,21.25-1.33,42.09.45,63.32,10.47,1.06,20.94,2.18,31.41,3.23,1.12,9.24,2.32,18.45,3.6,27.67-10.54-.65-21.04-1.67-31.55-2.73,3.59,23.21,7.93,46.3,11.37,69.54-6.27-.73-9.33-1.13-15.43-1.87-5.04-30.69-11.96-61.2-14.4-92.26-2.45-31.25,1.91-61.5,6.02-92.41Z"/>
      <path class="st0" d="M199.15,18.68c11.05,6.54,20.76,13.81,30.21,22.47,4.34,6.33,8.27,12.6,12.1,19.25-7.92-4.86-16.23-8.76-24.72-12.49,3.62,13.85,6.71,27.82,9.62,41.84,9.52,1.69,18.9,3.54,28.27,5.95,2.29,7.35,4.37,14.66,6.31,22.11-9.92-1.47-19.83-2.36-29.83-3.18,2.89,16.57,5.46,33.13,7.42,49.83,11.04-.94,22.06-2.3,33.16-2.19.89,7.82,1.51,15.66,1.9,23.52-16.15,1.51-32.06,4.78-48.15,6.85-4.66-57.72-13.05-117.58-26.29-173.98Z"/>
    </g>
    <g>
      <path class="st0" d="M168.93,223.58c3.05.61,4.58.89,7.64,1.39,4.98,29.5,10.3,59.11,6.75,89.07-3.44,28.95-13.78,56.04-20.86,84.15-2.46.45-3.7.64-6.21.96,2.31-10.71,5.67-21.07,8.84-31.54-3.97.15-5.98.15-10.04.02-4.36,10.75-8.53,21.37-11.9,32.49-2.55.06-4.53.19-6.56-.57,8.62-29.4,23.37-56.6,30.13-86.65,6.62-29.39,4-59.53,2.22-89.32ZM172.15,342.4c4.02-17.85,6.46-35.1,6.6-53.42-.13-8-.84-15.97-1.95-23.89.3,7.89.21,15.78-.43,23.65-1.91,18.42-6.17,35.81-11.96,53.38,3.12.19,4.66.24,7.74.27Z"/>
      <path class="st0" d="M177.73,364.98c12.11-34.61,18.69-67.33,16.6-104.12-.31-6.29-4.61-32.83,6.09-34.82,2.28.15,3.42.22,5.69.32,11.41,2.51,10.48,26.05,10.87,34.25.22,8.61.24,17.22-.38,25.82-2.4.3-3.6.43-6.02.65.44-6.49.52-13.12.28-19.63-.31-12.08-1.27-16.13-4.17-16.13-1.2,0-1.81,0-3.01-.02-2.91-.04-3.18,4.08-2.65,16.38.96,31.48-5.1,60.44-15.13,90.15-4.08,11.66-5.12,15.41-2.5,14.84,1.08-.24,1.63-.36,2.7-.62,5.21-3.41,6.81-10.46,8.94-15.97,2.25-6.21,4.34-12.51,6.21-18.84,2.32-.44,3.48-.68,5.78-1.22-2.54,8.33-5.4,16.56-8.53,24.68-4.23,10.3-9.54,28.57-20.12,34.44-1.88.64-2.82.94-4.72,1.5-8.86-2.47,2.53-27.16,4.1-31.65Z"/>
      <path class="st0" d="M222.3,228.14c2.66-.07,3.99-.13,6.65-.27,1.1,22.05,1.37,43.95-1.26,65.9,3.49-.8,5.23-1.25,8.68-2.24,2.96-21.42,3.24-42.82,2.54-64.41,2.65-.26,3.97-.4,6.62-.73,1.07,55.23-10.16,102.94-35.75,151.91-1.99,1.38-2.99,2.05-5.02,3.33,10.6-21.6,19.92-43.16,26.54-66.34-3.35,1.2-5.04,1.75-8.44,2.74-6.47,23.67-15.85,45.73-25.81,68.08-2.08,1.11-3.14,1.64-5.26,2.65,10.74-25.65,21.82-51.01,27.46-78.38,5.6-27.13,4.69-54.75,3.04-82.24Z"/>
      <path class="st0" d="M260.13,245.88c-3.29.87-4.95,1.27-8.28,2.01.22-7.49.31-14.93.26-22.42,8.06-1.22,16.07-2.83,23.98-4.81-.32,6.99-.88,14.02-1.69,20.97-3.23,1.07-4.85,1.58-8.12,2.54-4.23,43.82-16.84,84.74-41.01,121.76-1.74,1.58-2.62,2.36-4.43,3.89,23.36-38.32,35.91-79.27,39.29-123.94Z"/>
    </g>
  </g>
</svg>