<?xml version="1.0" encoding="UTF-8"?>
<svg id="Vrstva_1" xmlns="http://www.w3.org/2000/svg" version="1.1" viewBox="0 0 789.16 453.24">
  <!-- Generator: Adobe Illustrator 30.2.1, SVG Export Plug-In . SVG Version: 2.1.1 Build 1)  -->
  <defs>
    <style>
      .st0 {
        fill: #126160;
      }
    </style>
  </defs>
  <g>
    <path class="st0" d="M68.37,370.61c0-23.64,14.72-41.7,38.24-41.7,15.34,0,25.77,7.15,30.39,17.52,1.96,4.4-1.4,9.35-6.22,9.35h-2.38c-2.65,0-5.09-1.54-6.14-3.97-2.49-5.74-7.93-9.3-15.65-9.3-14.72,0-21.74,12.26-21.74,28.1s8.47,27.98,21.85,27.98c7.81,0,13.73-3.86,16.13-9.9,1-2.53,3.5-4.15,6.22-4.15h2.22c4.85,0,8.1,4.96,6.2,9.43-1.49,3.49-3.69,6.71-6.57,9.42-5.46,5.13-13.16,8.47-24.19,8.47-22.41,0-38.35-17.28-38.35-41.25Z"/>
    <path class="st0" d="M144.62,370.5c0-23.86,14.94-41.59,38.46-41.59s38.35,17.73,38.35,41.59-14.83,41.47-38.35,41.47-38.46-17.62-38.46-41.47ZM204.94,370.5c0-15.94-7.14-28.32-21.74-28.32s-22.08,12.38-22.08,28.32,7.47,28.21,22.08,28.21,21.74-12.38,21.74-28.21Z"/>
    <path class="st0" d="M251.59,330.47h50.62c3.73,0,6.75,3.02,6.75,6.75v.11c0,3.73-3.02,6.75-6.75,6.75h-10.48c-3.73,0-6.75,3.02-6.75,6.75v52.62c0,3.73-3.02,6.75-6.75,6.75h-2.68c-3.73,0-6.75-3.02-6.75-6.75v-52.62c0-3.73-3.02-6.75-6.75-6.75h-10.48c-3.73,0-6.75-3.02-6.75-6.75v-.11c0-3.73,3.02-6.75,6.75-6.75Z"/>
    <path class="st0" d="M338.23,377.91l-20.32-37.48c-2.44-4.49.82-9.96,5.93-9.96h2.15c2.54,0,4.86,1.42,6.01,3.68l10.16,19.95c2.45,4.79,5.24,11.37,5.24,11.37h.22s3.01-6.58,5.35-11.37l9.95-19.91c1.14-2.29,3.48-3.73,6.03-3.73h1.45c5.11,0,8.37,5.47,5.93,9.96l-20.32,37.48c-.54.99-.82,2.09-.82,3.21v22.32c0,3.73-3.02,6.75-6.75,6.75h-2.68c-3.73,0-6.75-3.02-6.75-6.75v-22.32c0-1.12-.28-2.23-.82-3.21Z"/>
    <path class="st0" d="M407.05,337.22c0-3.73,3.02-6.75,6.75-6.75h28.26c9.25,0,16.17,2.68,20.85,7.47,4.46,4.57,7.14,10.81,7.14,18.17,0,15.05-9.92,25.2-26.65,25.2h-12.88c-3.73,0-6.75,3.02-6.75,6.75v15.39c0,3.73-3.02,6.75-6.75,6.75h-3.23c-3.73,0-6.75-3.02-6.75-6.75v-66.23ZM423.78,361.41c0,3.73,3.02,6.75,6.75,6.75h9.98c8.47,0,12.93-4.68,12.93-11.93s-4.68-11.71-12.71-11.71h-10.2c-3.73,0-6.75,3.02-6.75,6.75v10.15Z"/>
    <path class="st0" d="M484.81,330.47h2.68c3.73,0,6.75,3.02,6.75,6.75v52.74c0,3.73,3.02,6.75,6.75,6.75h23.97c3.73,0,6.75,3.02,6.75,6.75h0c0,3.73-3.02,6.75-6.75,6.75h-40.14c-3.73,0-6.75-3.02-6.75-6.75v-66.23c0-3.73,3.02-6.75,6.75-6.75Z"/>
    <path class="st0" d="M533.58,370.5c0-23.86,14.94-41.59,38.46-41.59s38.35,17.73,38.35,41.59-14.83,41.47-38.35,41.47-38.46-17.62-38.46-41.47ZM593.9,370.5c0-15.94-7.14-28.32-21.74-28.32s-22.08,12.38-22.08,28.32,7.47,28.21,22.08,28.21,21.74-12.38,21.74-28.21Z"/>
    <path class="st0" d="M617.92,330.47h50.62c3.73,0,6.75,3.02,6.75,6.75v.11c0,3.73-3.02,6.75-6.75,6.75h-10.48c-3.73,0-6.75,3.02-6.75,6.75v52.62c0,3.73-3.02,6.75-6.75,6.75h-2.68c-3.73,0-6.75-3.02-6.75-6.75v-52.62c0-3.73-3.02-6.75-6.75-6.75h-10.48c-3.73,0-6.75-3.02-6.75-6.75v-.11c0-3.73,3.02-6.75,6.75-6.75Z"/>
    <path class="st0" d="M704.57,377.91l-20.32-37.48c-2.44-4.49.82-9.96,5.93-9.96h2.15c2.54,0,4.86,1.42,6.01,3.68l10.16,19.95c2.45,4.79,5.24,11.37,5.24,11.37h.22s3.01-6.58,5.35-11.37l9.95-19.91c1.14-2.29,3.48-3.73,6.03-3.73h1.45c5.11,0,8.37,5.47,5.93,9.96l-20.32,37.48c-.54.99-.82,2.09-.82,3.21v22.32c0,3.73-3.02,6.75-6.75,6.75h-2.68c-3.73,0-6.75-3.02-6.75-6.75v-22.32c0-1.12-.28-2.23-.82-3.21Z"/>
  </g>
  <g>
    <rect class="st0" x="412.55" y="230.15" width="15.23" height="65.17" rx="4.8" ry="4.8" transform="translate(-54.89 403.78) rotate(-48.55)"/>
    <rect class="st0" x="312.25" y="176.16" width="15.23" height="71.71" rx="4.8" ry="4.8" transform="translate(258.52 -166.8) rotate(47.26)"/>
    <rect class="st0" x="352.76" y="213.07" width="15.23" height="85.59" rx="4.8" ry="4.8" transform="translate(303.74 -182.46) rotate(47.26)"/>
    <rect class="st0" x="414.97" y="177.91" width="15.23" height="29.23" rx="4.8" ry="4.8" transform="translate(277.21 -248.51) rotate(47.26)"/>
    <rect class="st0" x="373.71" y="112.12" width="15.23" height="29.23" rx="4.8" ry="4.8" transform="translate(215.63 -239.35) rotate(47.26)"/>
    <rect class="st0" x="484.34" y="79.72" width="15.23" height="71.71" rx="4.8" ry="4.8" transform="translate(242.99 -324.19) rotate(47.26)"/>
    <rect class="st0" x="433.59" y="34.91" width="15.23" height="71.71" rx="4.8" ry="4.8" transform="translate(193.76 -301.32) rotate(47.26)"/>
    <path class="st0" d="M335.96,155.05c-5.05,4.81-.52,12.13,3.25,16.21,8.6,9.32,22.14,19.71,32.04,28.35,13.88,12.11,31.19,24.84,42.82,38.55,4.97,5.86,12.73,2.28,12.56-4.76-.15-6.62-7.68-12.66-12.4-16.93-12.98-11.74-26.76-22.89-39.96-34.46-8.14-7.13-17.71-14.33-25.08-22.07-2.55-2.68-4.11-7.02-8.65-6.84-1.57.06-3.49.88-4.6,1.93Z"/>
    <path class="st0" d="M301.33,92.21c-5.05,4.81-.52,12.13,3.25,16.21,8.6,9.32,22.14,19.71,32.04,28.35,13.88,12.11,31.19,24.84,42.82,38.55,4.97,5.86,12.73,2.28,12.56-4.76-.15-6.62-7.68-12.66-12.4-16.93-12.98-11.74-26.76-22.89-39.96-34.46-8.14-7.13-17.71-14.33-25.08-22.07-2.55-2.68-4.11-7.02-8.65-6.84-1.57.06-3.49.88-4.6,1.93Z"/>
    <path class="st0" d="M460.24,167.36c2.18,1.77,4.88,2.11,7.22.9,2.32-1.2,3.74-3.61,3.8-6.45.16-7.24-8.89-15.08-15.5-20.81-.76-.66-1.5-1.3-2.2-1.91-11.91-10.5-24.51-20.86-36.69-30.88-8.82-7.25-17.94-14.75-26.74-22.26-2.36-2.01-4.95-4.16-8.41-6.97-1.51-1.22-7.65-6.17-9.2-7.43-8.91-7.23-16.15-13.4-22.52-19.98-1.26-1.3-2.29-2.71-3.29-4.07-1.14-1.55-2.22-3.02-3.38-3.96-1.08-.87-2.09-1.2-3.49-1.11-1.41.08-3.53.96-4.55,1.87-1.41,1.27-2.13,2.62-2.26,4.27-.29,3.73,2.4,9.11,7.01,14.04,8.37,8.95,20.28,18.79,30.8,27.32l8.71,7.05c3.37,2.73,7.31,5.94,10.98,9.06,2.98,2.53,6.24,5.23,10.29,8.51,3.03,2.46,6.12,4.93,9.23,7.43,3.17,2.54,6.37,5.11,9.55,7.69,13.9,11.28,28.3,23.5,39.37,36.46.4.47.83.89,1.27,1.25Z"/>
    <path class="st0" d="M430.85,157.61c-5.05,4.81-.52,12.13,3.25,16.21,8.6,9.32,22.14,19.71,32.04,28.35,13.88,12.11,31.19,24.84,42.82,38.55,4.97,5.86,12.73,2.28,12.56-4.76-.15-6.62-7.68-12.66-12.4-16.93-12.98-11.74-26.76-22.89-39.96-34.46-8.14-7.13-17.71-14.33-25.08-22.07-2.55-2.68-4.11-7.02-8.65-6.84-1.57.06-3.49.88-4.6,1.93Z"/>
  </g>
</svg>