<?xml version="1.0" encoding="UTF-8"?>
<svg id="Vrstva_1" xmlns="http://www.w3.org/2000/svg" version="1.1" viewBox="0 0 833.57 184.9">
  <!-- Generator: Adobe Illustrator 30.2.1, SVG Export Plug-In . SVG Version: 2.1.1 Build 1)  -->
  <defs>
    <style>
      .st0 {
        fill: #004643;
      }
    </style>
  </defs>
  <g>
    <path class="st0" d="M215.75,93.21c0-21.63,13.47-38.16,35-38.16,14.03,0,23.58,6.54,27.81,16.03,1.8,4.03-1.28,8.56-5.69,8.56h-2.18c-2.42,0-4.66-1.41-5.62-3.63-2.28-5.26-7.26-8.51-14.32-8.51-13.47,0-19.9,11.22-19.9,25.71s7.75,25.61,20,25.61c7.15,0,12.56-3.53,14.76-9.06.92-2.31,3.2-3.79,5.69-3.79h2.04c4.44,0,7.41,4.54,5.67,8.63-1.36,3.2-3.38,6.14-6.02,8.62-5,4.69-12.04,7.75-22.14,7.75-20.51,0-35.1-15.81-35.1-37.75Z"/>
    <path class="st0" d="M285.53,93.11c0-21.83,13.67-38.06,35.2-38.06s35.1,16.22,35.1,38.06-13.57,37.95-35.1,37.95-35.2-16.12-35.2-37.95ZM340.73,93.11c0-14.59-6.53-25.92-19.9-25.92s-20.2,11.33-20.2,25.92,6.84,25.81,20.2,25.81,19.9-11.33,19.9-25.81Z"/>
    <path class="st0" d="M383.42,56.48h46.32c3.41,0,6.17,2.76,6.17,6.17v.1c0,3.41-2.76,6.17-6.17,6.17h-9.59c-3.41,0-6.17,2.76-6.17,6.17v48.16c0,3.41-2.76,6.17-6.17,6.17h-2.45c-3.41,0-6.17-2.76-6.17-6.17v-48.16c0-3.41-2.76-6.17-6.17-6.17h-9.59c-3.41,0-6.17-2.76-6.17-6.17v-.1c0-3.41,2.76-6.17,6.17-6.17Z"/>
    <path class="st0" d="M462.71,99.89l-18.59-34.3c-2.23-4.11.75-9.11,5.43-9.11h1.97c2.32,0,4.45,1.3,5.5,3.37l9.3,18.26c2.24,4.39,4.79,10.41,4.79,10.41h.2s2.75-6.02,4.9-10.41l9.11-18.22c1.05-2.09,3.18-3.41,5.52-3.41h1.33c4.68,0,7.66,5,5.43,9.11l-18.59,34.3c-.49.9-.75,1.91-.75,2.94v20.42c0,3.41-2.76,6.17-6.17,6.17h-2.45c-3.41,0-6.17-2.76-6.17-6.17v-20.42c0-1.03-.26-2.04-.75-2.94Z"/>
    <path class="st0" d="M525.68,62.65c0-3.41,2.76-6.17,6.17-6.17h25.86c8.47,0,14.79,2.45,19.08,6.84,4.08,4.18,6.53,9.9,6.53,16.63,0,13.77-9.08,23.06-24.38,23.06h-11.78c-3.41,0-6.17,2.76-6.17,6.17v14.08c0,3.41-2.76,6.17-6.17,6.17h-2.96c-3.41,0-6.17-2.76-6.17-6.17v-60.6ZM540.99,84.79c0,3.41,2.76,6.17,6.17,6.17h9.13c7.75,0,11.83-4.29,11.83-10.92s-4.28-10.71-11.63-10.71h-9.34c-3.41,0-6.17,2.76-6.17,6.17v9.28Z"/>
    <path class="st0" d="M596.84,56.48h2.45c3.41,0,6.17,2.76,6.17,6.17v48.26c0,3.41,2.76,6.17,6.17,6.17h21.94c3.41,0,6.17,2.76,6.17,6.17h0c0,3.41-2.76,6.17-6.17,6.17h-36.73c-3.41,0-6.17-2.76-6.17-6.17v-60.6c0-3.41,2.76-6.17,6.17-6.17Z"/>
    <path class="st0" d="M641.47,93.11c0-21.83,13.67-38.06,35.2-38.06s35.1,16.22,35.1,38.06-13.57,37.95-35.1,37.95-35.2-16.12-35.2-37.95ZM696.67,93.11c0-14.59-6.53-25.92-19.9-25.92s-20.2,11.33-20.2,25.92,6.84,25.81,20.2,25.81,19.9-11.33,19.9-25.81Z"/>
    <path class="st0" d="M718.65,56.48h46.32c3.41,0,6.17,2.76,6.17,6.17v.1c0,3.41-2.76,6.17-6.17,6.17h-9.59c-3.41,0-6.17,2.76-6.17,6.17v48.16c0,3.41-2.76,6.17-6.17,6.17h-2.45c-3.41,0-6.17-2.76-6.17-6.17v-48.16c0-3.41-2.76-6.17-6.17-6.17h-9.59c-3.41,0-6.17-2.76-6.17-6.17v-.1c0-3.41,2.76-6.17,6.17-6.17Z"/>
    <path class="st0" d="M797.94,99.89l-18.59-34.3c-2.23-4.11.75-9.11,5.43-9.11h1.97c2.32,0,4.45,1.3,5.5,3.37l9.3,18.26c2.24,4.39,4.79,10.41,4.79,10.41h.2s2.75-6.02,4.9-10.41l9.11-18.22c1.05-2.09,3.18-3.41,5.52-3.41h1.33c4.68,0,7.66,5,5.43,9.11l-18.59,34.3c-.49.9-.75,1.91-.75,2.94v20.42c0,3.41-2.76,6.17-6.17,6.17h-2.45c-3.41,0-6.17-2.76-6.17-6.17v-20.42c0-1.03-.26-2.04-.75-2.94Z"/>
  </g>
  <g>
    <rect class="st0" x="91.81" y="141.05" width="11.45" height="48.96" rx="3.61" ry="3.61" transform="translate(-91.1 129.07) rotate(-48.55)"/>
    <rect class="st0" x="16.46" y="100.49" width="11.45" height="53.88" rx="3.61" ry="3.61" transform="translate(100.72 24.66) rotate(47.26)"/>
    <rect class="st0" x="46.89" y="128.22" width="11.45" height="64.3" rx="3.61" ry="3.61" transform="translate(134.69 12.9) rotate(47.26)"/>
    <rect class="st0" x="93.63" y="101.8" width="11.45" height="21.96" rx="3.61" ry="3.61" transform="translate(114.77 -36.73) rotate(47.26)"/>
    <rect class="st0" x="62.63" y="52.37" width="11.45" height="21.96" rx="3.61" ry="3.61" transform="translate(68.5 -29.84) rotate(47.26)"/>
    <rect class="st0" x="145.75" y="28.04" width="11.45" height="53.88" rx="3.61" ry="3.61" transform="translate(89.06 -93.59) rotate(47.26)"/>
    <rect class="st0" x="107.62" y="-5.63" width="11.45" height="53.88" rx="3.61" ry="3.61" transform="translate(52.07 -76.4) rotate(47.26)"/>
    <path class="st0" d="M34.27,84.63c-3.79,3.62-.39,9.11,2.44,12.18,6.46,7,16.63,14.81,24.07,21.3,10.43,9.1,23.44,18.66,32.17,28.96,3.73,4.4,9.56,1.71,9.44-3.57-.11-4.97-5.77-9.51-9.32-12.72-9.76-8.82-20.11-17.2-30.02-25.89-6.11-5.36-13.31-10.77-18.84-16.58-1.91-2.01-3.08-5.28-6.5-5.14-1.18.05-2.62.66-3.45,1.45Z"/>
    <path class="st0" d="M8.25,37.42c-3.79,3.62-.39,9.11,2.44,12.18,6.46,7,16.63,14.81,24.07,21.3,10.43,9.1,23.44,18.66,32.17,28.96,3.73,4.4,9.56,1.71,9.44-3.57-.11-4.97-5.77-9.51-9.32-12.72-9.76-8.82-20.11-17.2-30.02-25.89-6.11-5.36-13.31-10.77-18.84-16.58-1.91-2.01-3.08-5.28-6.5-5.14-1.18.05-2.62.66-3.45,1.45Z"/>
    <path class="st0" d="M127.64,93.88c1.64,1.33,3.67,1.58,5.43.68,1.74-.9,2.81-2.71,2.85-4.85.12-5.44-6.68-11.33-11.64-15.63-.57-.5-1.13-.98-1.65-1.44-8.95-7.88-18.41-15.67-27.57-23.2-6.63-5.45-13.48-11.09-20.09-16.73-1.77-1.51-3.72-3.12-6.32-5.23-1.13-.92-5.75-4.64-6.91-5.58-6.7-5.43-12.14-10.06-16.92-15.01-.94-.98-1.72-2.04-2.47-3.06-.86-1.17-1.67-2.27-2.54-2.98-.81-.66-1.57-.9-2.63-.84-1.06.06-2.65.72-3.42,1.41-1.06.95-1.6,1.97-1.69,3.21-.22,2.8,1.8,6.84,5.26,10.54,6.29,6.72,15.24,14.12,23.14,20.53l6.54,5.3c2.53,2.05,5.49,4.47,8.25,6.81,2.24,1.9,4.69,3.93,7.73,6.39,2.28,1.85,4.6,3.71,6.94,5.58,2.38,1.91,4.78,3.84,7.18,5.78,10.45,8.47,21.26,17.65,29.58,27.39.3.35.62.67.95.94Z"/>
    <path class="st0" d="M105.56,86.55c-3.79,3.62-.39,9.11,2.44,12.18,6.46,7,16.63,14.81,24.07,21.3,10.43,9.1,23.44,18.66,32.17,28.96,3.73,4.4,9.56,1.71,9.44-3.57-.11-4.97-5.77-9.51-9.32-12.72-9.76-8.82-20.11-17.2-30.02-25.89-6.11-5.36-13.31-10.77-18.84-16.58-1.91-2.01-3.08-5.28-6.5-5.14-1.18.05-2.62.66-3.45,1.45Z"/>
  </g>
</svg>