<?xml version="1.0" encoding="UTF-8"?>
<svg id="Vrstva_1" xmlns="http://www.w3.org/2000/svg" version="1.1" viewBox="0 0 1743.81 894.37">
  <!-- Generator: Adobe Illustrator 30.2.1, SVG Export Plug-In . SVG Version: 2.1.1 Build 1)  -->
  <defs>
    <style>
      .st0 {
        fill: #1d1d16;
      }
    </style>
  </defs>
  <g>
    <path class="st0" d="M1526.66,695.1l72.65-34.45c18.58-10.73,52.53-53.08,60.28-73.45,7.35-19.33,5.74-45.66,11.98-67.79,4.83-17.12,21.91-56.05,39.54-60.93,35.6-9.86,26.25,28.35,27.69,50.07,2.45,37.19,5.7,76.49,2.92,114.06-1.15,15.5-8.67,36.19-9.02,49.5-.42,15.98,8.05,42.92,9.18,61.4,2.13,34.74,3,92.56.02,126.68-1.59,18.14-13.78,29.33-31.41,30.68-28.38,2.18-65.61-2.39-95.83-1.67-45.78,1.09-133.31,11.75-174.82-1.24-8.7-2.72-16.79-11.58-25.01-10.95-5.94.46-18.59,6.94-27.95,8.37-57.5,8.73-103.28,6.36-160.36,3.83-18.42-.82-72.55,6.61-80.73-12.25-23.79-54.86,81.28-75.21,108.8-91.1,25.86-14.93,64.81-70.68,66.11-101.5,1.65-39.14-37.83-54.08-10.4-93.81,6.94-10.06,50.91-49.23,61.32-53.91,22.71-10.22,44.07,4.92,60.99,19.67,12.85,11.2,92.25,102.35,93.87,112.77,1.28,8.24-.47,17.61.18,26.02Z"/>
    <path class="st0" d="M1652.12,349.8c19.37,25.16,57.18,5.97,71.39,41.88,12.04,30.43-24.5,48.91-40.06,69.03-40.67,52.61-15.18,112.77-74.58,166.6-72,65.25-97.63-14.56-140.45-61.78-26.22-28.91-63.87-42.36-67.37-84.63-2.65-31.93,1.55-65.35,1.75-97.26-3.3-5.51-31.84-10.35-40.45-13.87-26.1-10.68-86.49-33.09-106.67-47.15-30.1-20.96-13.37-43.44,15.45-49.99l438.9.43c10.98,1.26,23.82,5.73,27.41,17.96,2.09,7.14,4.8,33.82,4.51,41.83-1.89,53.3-60.04,18.25-89.83,16.96Z"/>
    <path class="st0" d="M1379.36,410.78c-8.66-29.14-48.94-36.7-72.89-48.16-29.89-14.26-56.4-38.11-91.34-30.62-9.71,2.03-21.54,12.78-32.61,15.66-38.93,10.13-60.62-23.22-94.35-27.9-18.07-2.49-34.41,5.3-52.56,1.79l-4.89-4.21c-1.13-3.74,1.2-9.82,4.44-10.75,7.38-2.18,34.49,0,44.8,0,28.09,0,53.01,27.59,79.06,32.5,25.83,4.91,58.28-6.86,59.71-37.56,1.96-43.48-73.72-25.25-99.85-25.56-57.83-.7-118.52-8.49-176.43-3.35-49.17,4.36-38.4,30.08-64.15,59.3-1.88,2.18-3.99,4.29-6.4,6.39-.15.16-.23.23-.38.39-14.31,12.62-35.47,25.25-42.24,42.16-6.18,15.27-11.07,77.15-6.1,92.11,4.14,12.55,26.35,30,33.73,42.24,8.36,14.03,12.35,34.13,18.82,50.42,8.36,21.12,21.08,35.69,53.31,21.59-4.37,54.86,50.6,25.87,79.14,24.55,19.65-1.01,40.96,6.55,59.33,6,26.2-.7,54.82-18.08,81.55-20.96,42.77-4.68,97.06,9.35,135.31-17.53,10.32-7.25,20.03-22.05,30.04-30.7,19.35-16.68,60.54-42.55,65.13-68.5,2.94-17.07,4.59-52.99-.23-69.28ZM1040.74,568.27c-28.16,2.57-53.99-4.13-81.77-5.84,8.43-17.38,29.14-6.39,43.22-6,11.9.39,30.8,1.48,41.79-.31,9.41-1.48,48.19-25.4,55.42-18.23,2.79,23.69-41.26,28.83-58.66,30.39Z"/>
    <path class="st0" d="M719.99,328.2c-17.87,54.04,11.59,36.21,45.94,40.41,42.33,5.17,48.24,44.93,33.91,80.55-16.62,41.29-64.75,20.25-87.35-3.76-10.7,7.59-8.48,22.49-6.16,34.05,5.31,7.84,25.51.04,33.08-.16,25.49-.68,60.77.11,80.62,18.48,14.37,13.3,47.32,83.75,46.49,103.22-1.35,31.81-72.51,37.49-95.87,43.1-50.98,12.25-58.76,29.2-110.49.16-33.57-18.84-58.81-47.52-99.92-51.04-27.89-2.38-70.77,11.68-92.86-12.07-24.92-26.79,3.65-68.4-2.07-102.69-3.05-18.29-17.79-32.87-23.74-49.49-12.74-35.56,4.22-64.37,13.47-98.23,5.9-21.62,1.29-46.88,26.41-55.99l383.34-1.96c31.95,15.23,1.4,47.06-14.95,61.49-30.1,26.56-69.99,44.09-105.77,16.84-5.82-4.43-19.23-26.51-24.07-22.9Z"/>
    <path class="st0" d="M1285.83,639.88c-18.52-30-92.92-23.61-124.32-20.88-32.98,2.81-70.1,22.91-93.67,23.85-24.17.86-50.15-8.88-77.63-6.39-11.75,1.01-28.31,9.12-35.77,9.04-12.05-.23-29.67-21.9-47.51-21.12-13.7.62-23.72,12.78-35.39,20.65-3.54,2.34-7.15,4.36-11.07,5.45-34.64,10.21-97.89,15.9-128.23,31.09-23.04,11.46-27.63,37.33-30.12,61.41-3.16,30.08,1.81,126.01,30.65,140.89,19.28,9.9,84.56,10.68,137.19,9.97,25.45-.39,47.89-1.09,60.77-1.32,41.94-.62,97.59,1.4,137.42-1.64,42.92-3.27,61.67-59.15,91.26-82.99,29.07-23.38,67.69-22.21,95.41-46.44,32.3-28.36,56.32-80.5,31.02-121.56ZM933.59,719.76c-15.81-23.92-40.21-47.85,4.44-52.37l-4.44,52.37Z"/>
    <path class="st0" d="M19.99,402.84c10.58-3.27,18.6,1.69,25.91,8.99,38.13,38.05,74.52,106.93,113.82,150.77,17.63,19.67,42.99,46.99,69.46,51.64,28.64,5.03,104.33-11.72,135.84-18.68,22.47-4.97,80.32-35.65,79.01,8.15-1.07,35.81-46.04,33.38-70.63,43.66-8.95,3.74-16.14,10.29-24.85,14.44-11.05,5.27-25.96,4.67-33.37,14.89-16.12,40.72-38.97,78.93-53.79,120.22-15.97,44.49-9.71,90.66-65.67,95.63-54.63,4.85-112.5-6.59-167.48-3.12-10.96-.37-19.52-8.66-23.99-18.41l-1.31-248.31c-2.61-14.9,17.71-42.72,17.7-52.46,0-8.04-9.99-16.19-12.94-23.42-8.8-21.53-10.28-100.43-3.33-123.07,1.95-6.36,9.33-18.97,15.61-20.91Z"/>
    <path class="st0" d="M295.72,325.12c-1.63,8.83,2.35,4.95,6.53,6.97,11.91,5.74,32.2,13.45,45.01,10.89,4.76-.95,26.34-12.57,28.82-16.63,9.57-15.68-.6-61.31,37.35-56.66,40.52,4.97,22.34,64.46,12.18,89.27-13.55,33.06-27.58,29.14-10.04,69.05,16.73,38.08,39.09,51.17,25.81,101.37-10.9,41.2-63.46,36.54-95.49,43.28-56.7,11.94-112.85,37.57-162.3-10.08-47.6-45.86-80.78-112-122.38-160.43-15.49-18.03-45.05-23.75-53.48-43.46-6.72-15.7-15.4-87.73,14.56-86.05l325.53.23c33.69,7.27,30.43,60.9-5.32,60.36-14.69-.22-31.05-10.72-46.78-8.11Z"/>
    <path class="st0" d="M573.58,849.25c29.95-9.36,62.28-27.09,94.26-27.84,38.41-.9,34.64,69.78-.22,71.22-7.3.3-15.16-3.39-23.71-3.43-110.38-.6-221.46-.3-331.88,0-14.83.04-23.5,7.35-38.78-5.95-17.5-15.23-8.35-31.23-2.79-49.26,11.78-38.18,43.65-119.15,69.94-146.72,35.56-37.3,60.71-29.04,99.59-45.21,16.56-6.89,30.11-24.87,48.36-27.17,60.4-7.59,114.51,9.31,163.81,43.82,44.38,31.07,34.61,41.66,28.98,90.4-1.95,16.92,3.33,31.44-7.62,47.63-22.57,33.38-84.34,10.32-99.95,52.52Z"/>
  </g>
  <g>
    <path d="M13.79,3.72h120.47v12.21H27.59v72.97h92.08v11.94H27.59v92.61h-13.8V3.72Z"/>
    <path d="M157.61,3.72h125.78v12.21h-111.98v73.77h102.96v11.94h-102.96v79.08h114.63v12.74h-128.43V3.72Z"/>
    <path d="M299.05,133.48h14.07c1.33,32.11,24.41,51.21,59.71,51.21,28.92,0,50.95-15.66,50.95-42.46s-14.59-34.23-59.71-42.72c-36.09-6.63-58.11-17.78-58.11-49.36,0-29.72,25.48-50.15,62.89-50.15s60.77,21.76,63.42,52.81h-13.8c-2.65-26.54-22.82-40.6-49.36-40.6-31.05,0-49.09,15.92-49.09,37.68,0,23.35,15.13,30.78,52.54,37.68,36.89,6.9,65.54,15.66,65.54,53.6,0,32.37-25.74,55.73-65.01,55.73-47.5,0-71.91-27.07-74.04-63.42Z"/>
    <path d="M441.02,3.72h143.29v12.47h-64.75v177.26h-13.8V16.19h-64.75V3.72Z"/>
    <path d="M606.34,3.72h13.8v189.73h-13.8V3.72Z"/>
    <path d="M639.24,3.72h14.06l50.68,139.31c5.04,13.8,11.68,35.29,11.68,35.29h.53s7.16-22.56,12.47-36.62L779.88,3.72h13.8l-70.32,189.73h-14.59L639.24,3.72Z"/>
    <path d="M846.22,3.72h15.66l73.5,189.73h-14.33l-23.35-60.77h-87.3l-23.35,60.77h-14.06L846.22,3.72ZM814.91,121h78.28l-28.66-75.36c-4.25-10.88-10.35-28.13-10.35-28.13h-.53s-5.31,16.19-9.82,28.13l-28.92,75.36Z"/>
    <path d="M953.43,3.72h13.8v176.99h102.16v12.74h-115.96V3.72Z"/>
    <path d="M1123.26,3.72h143.29v12.47h-64.75v177.26h-13.8V16.19h-64.75V3.72Z"/>
    <path d="M1287.51,3.72h13.8v176.99h102.16v12.74h-115.96V3.72Z"/>
    <path d="M1484.94,3.72h15.66l73.5,189.73h-14.33l-23.35-60.77h-87.3l-23.35,60.77h-14.06L1484.94,3.72ZM1453.63,121h78.28l-28.66-75.36c-4.25-10.88-10.35-28.13-10.35-28.13h-.53s-5.31,16.19-9.82,28.13l-28.92,75.36Z"/>
    <path d="M1592.14,3.72h13.8v105.88L1714.48,3.45h18.31l-80.93,78.28,84.65,111.72h-16.72l-77.75-102.16-36.09,35.29v66.87h-13.8V3.72Z"/>
  </g>
</svg>