<svg width="1400" height="200" viewBox="0 0 1400 200" fill="none" xmlns="http://www.w3.org/2000/svg">
<path d="M706.988 166.964V166.914C668.79 166.914 648.79 131.109 648.79 95.8064C648.79 58.4186 670.124 33.2923 701.877 33.2923C716.939 33.2923 737.951 37.6894 752.445 52.7149L753.778 8.26654C753.778 8.26654 750.198 7.33687 744.865 6.13081C734.42 3.79407 716.766 0.351768 702.617 0.351768C690.42 0.351768 679.062 2.43725 668.716 6.13081C631.901 19.2718 608.198 54.122 608.198 99.8518C608.198 161.612 647.432 199.905 710.593 199.905C735.803 199.905 759.26 190.558 759.26 190.558L757.926 146.134C743.408 161.135 725.136 166.939 706.963 166.939L706.988 166.964ZM542.741 81.987C523.482 72.7405 507.383 64.7504 506.79 50.1771C506.124 35.6039 517.679 30.2269 534.642 30.3023C548.963 30.3777 569.087 40.3276 576.568 51.7098L579.581 7.81427C579.581 7.81427 577.704 7.11073 574.692 6.15593C567.704 3.96995 553.679 0.40202 536.642 0.40202C522.148 0.40202 510.568 2.61313 501.309 6.15593C474.543 16.4326 467.383 38.3176 467.729 53.2677C468.543 90.555 497.926 104.676 521.827 116.083C539.704 124.601 555.334 132.064 555.334 146.159C555.334 156.913 543.284 167.768 524 168.12C499.432 168.547 481.679 159.175 469.309 143.546L471.087 190.281C471.087 190.281 492.593 199.93 521.185 199.93C551.556 199.93 594.494 180.683 594.494 138.019C594.494 107.339 567.013 93.4697 542.79 81.987H542.741ZM216.988 27.8148L225.926 4.29659H174.889L170.568 15.5783L129.235 123.747L82.9879 15.5532L78.1484 4.27146H28.2965L37.2348 27.7896L11.8521 172.869L0.0249023 195.03H51.6052L41.2348 172.869L62.9632 56.8105L120.692 196.688H132.84L186.148 56.8105L205.63 172.869L195.259 195.03H254.297L242.469 172.869L217.013 27.7896L216.988 27.8148ZM382.074 6.00518L381.408 4.27146H324.914L333.482 27.7896L306.618 100.43H279.877V130.933H295.358L279.951 172.994L264.642 195.03H320.025L312.148 172.869L328.222 130.933H387.926L401.358 162.542L405.087 172.869L397.26 195.03H460.173L444.815 172.869L382.074 6.00518ZM337.556 100.43L358.222 44.2222L378.716 100.43H337.556ZM1120.42 45.7549L1143.43 34.7999H1167.16C1167.16 34.7999 1167.16 48.2173 1167.19 67.263V159.426C1167.19 168.271 1167.19 172.818 1167.19 172.818L1153.98 194.98H1218.2L1204.99 172.818V159.426V34.7747H1228.74L1251.75 45.7298V4.27146H1120.42V45.78V45.7549ZM1376.67 34.7999L1399.83 45.8052V4.27146H1271.8L1283.36 34.7747L1283.21 99.6508L1283.36 164.527L1271.8 195.03H1399.83V153.471L1376.67 164.477H1319.33V115.631H1376.67V83.6453H1369.48H1319.33V34.7747H1376.67V34.7999ZM902 6.13081C891.976 2.26136 880.939 0 869.037 0C855.729 0 843.506 2.23624 832.346 6.13081C791.926 20.2518 767.062 57.4135 767.062 99.5502C767.062 163.371 817.877 199.905 865.235 199.905C920.618 199.905 963.951 155.18 963.951 98.1683C963.951 60.3282 940.42 20.8799 901.976 6.13081H902ZM866.815 166.939C831.235 167.165 807.877 131.938 807.679 97.716C807.432 59.3482 831.778 33.4933 865.556 33.2672C902 33.0159 923.087 68.3183 923.309 103.269C923.556 141.134 899.803 166.738 866.815 166.939ZM965.457 45.78L988.469 34.825H1012.2C1012.2 34.825 1012.2 48.2424 1012.22 67.2881V159.451C1012.22 168.296 1012.22 172.844 1012.22 172.844L999.013 195.005H1063.23L1050.03 172.844V159.451V34.7999H1073.78L1096.79 45.7549V4.27146H965.457V45.78Z" fill="#00ED6E"/>
</svg>
