<?xml version="1.0" encoding="UTF-8"?>
<svg id="Vrstva_1" xmlns="http://www.w3.org/2000/svg" version="1.1" viewBox="0 0 400.05 64.86">
  <!-- Generator: Adobe Illustrator 30.2.1, SVG Export Plug-In . SVG Version: 2.1.1 Build 1)  -->
  <defs>
    <style>
      .st0 {
        fill: #1d1d1b;
      }
    </style>
  </defs>
  <g>
    <path class="st0" d="M0,0h54.52v15.75h-18.14v47.53h-18.5V15.75H0V0Z"/>
    <path class="st0" d="M57.87,0h51.79v15.05h-33.29v8.58h33.29v13.9h-33.29v9.91h33.29v15.84h-51.79V0Z"/>
    <path class="st0" d="M112.47,0h29.21c18.23,0,30.89,11.68,30.89,31.77s-12.04,31.51-31.68,31.51h-28.41V0ZM139.37,47.97c8.5,0,14.43-5.49,14.43-16.2s-5.58-16.46-14.43-16.46h-8.41v32.66h8.41Z"/>
  </g>
  <g>
    <path class="st0" d="M229.47,0h27.34c7.45,0,12.75,2.21,15.9,6.63,1.85,2.61,2.77,5.62,2.77,9.04,0,3.99-1.14,7.26-3.4,9.81-1.18,1.35-2.87,2.58-5.08,3.7,3.24,1.23,5.67,2.63,7.27,4.18,2.84,2.75,4.26,6.56,4.26,11.4,0,4.08-1.29,7.76-3.86,11.06-3.84,4.94-9.95,7.4-18.32,7.4h-26.89V0ZM253.61,26.73c3.65,0,6.49-.5,8.52-1.51,3.19-1.58,4.79-4.42,4.79-8.52s-1.7-6.91-5.09-8.35c-1.91-.8-4.76-1.2-8.53-1.2h-15.44v19.58h15.74ZM256.5,55.91c5.3,0,9.08-1.52,11.34-4.56,1.42-1.92,2.13-4.25,2.13-6.97,0-4.59-2.07-7.72-6.21-9.38-2.2-.89-5.11-1.33-8.73-1.33h-17.16v22.25h18.64Z"/>
    <path class="st0" d="M285.9,17.13h7.36v7.96c.6-1.55,2.08-3.44,4.43-5.66,2.35-2.22,5.07-3.33,8.13-3.33.14,0,.39.01.73.04.34.03.93.09,1.76.17v8.18c-.46-.09-.88-.14-1.27-.17-.39-.03-.81-.04-1.27-.04-3.9,0-6.9,1.26-9,3.77-2.1,2.51-3.14,5.4-3.14,8.67v26.51h-7.75V17.13Z"/>
    <path class="st0" d="M313.27,17.13h7.36v6.54c2.18-2.7,4.49-4.63,6.93-5.81,2.44-1.18,5.15-1.76,8.13-1.76,6.54,0,10.96,2.28,13.26,6.84,1.26,2.5,1.89,6.07,1.89,10.72v29.57h-7.88v-29.05c0-2.81-.42-5.08-1.25-6.8-1.38-2.87-3.87-4.3-7.49-4.3-1.84,0-3.34.19-4.52.56-2.12.63-3.99,1.89-5.6,3.79-1.29,1.52-2.13,3.09-2.52,4.71-.39,1.62-.58,3.94-.58,6.95v24.15h-7.75V17.13Z"/>
    <path class="st0" d="M393.93,21.73c4.07,3.96,6.11,9.78,6.11,17.46s-1.8,13.56-5.39,18.41c-3.59,4.84-9.16,7.27-16.71,7.27-6.3,0-11.3-2.14-15-6.43-3.7-4.29-5.56-10.04-5.56-17.27,0-7.74,1.95-13.9,5.85-18.49,3.9-4.59,9.15-6.88,15.73-6.88,5.9,0,10.88,1.98,14.96,5.94ZM389.12,52.37c1.89-3.88,2.83-8.2,2.83-12.96,0-4.3-.68-7.8-2.04-10.49-2.16-4.24-5.87-6.36-11.15-6.36-4.68,0-8.09,1.81-10.21,5.42-2.13,3.61-3.19,7.97-3.19,13.07s1.06,8.99,3.19,12.25c2.13,3.27,5.51,4.9,10.13,4.9,5.08,0,8.56-1.94,10.45-5.83Z"/>
  </g>
  <path class="st0" d="M187.2,17.85L175.91,0h15.81l4.37,8.45h.15l4.3-8.45h14.64l-10.64,17.56,12.09,19.6h-15.81l-5.25-9.91h-.15l-5.54,9.91h-15.01l12.31-19.31Z"/>
</svg>