<?xml version="1.0" encoding="UTF-8"?>
<svg id="Vrstva_1" xmlns="http://www.w3.org/2000/svg" version="1.1" viewBox="0 0 733.75 268.65">
  <!-- Generator: Adobe Illustrator 30.2.1, SVG Export Plug-In . SVG Version: 2.1.1 Build 1)  -->
  <defs>
    <style>
      .st0 {
        fill: #12100b;
      }
    </style>
  </defs>
  <g>
    <path class="st0" d="M87.9,102.36c-26.2-5.88-39.67-8.81-39.67-21.06,0-9.79,10.04-16.4,25.22-16.4,16.16,0,26.44,7.59,28.16,21.06h42.36c-1.71-36.73-31.1-53.87-69.05-53.87S5.39,48.49,5.39,85.95s32.08,46.04,62.44,53.14c24,5.88,38.2,8.81,38.2,22.77,0,13.22-13.96,18.37-28.16,18.37-20.81,0-32.32-7.35-34.28-24.98H0c.98,38.69,31.59,59.26,78.11,59.26,40.4,0,71.74-20.32,71.74-57.05s-29.38-47.5-61.95-55.1Z"/>
    <path class="st0" d="M430.36,1.99c-3.67,0-7.19.64-10.84,1.38-4.21.98-7.76,2.99-11.2,4.94-2.33,1.32-4.52,2.56-6.85,3.48-3.71,1.39-6.87,3.56-9.92,5.65-1.53,1.05-3.11,2.13-4.63,3.03-4.33,2.35-20.92,11.98-24.96,16.28-1.57,1.74-3.37,3.13-6.37,4.89-2.8,1.93-5.66,3.81-8.51,5.69-7.8,5.15-15.87,10.47-23.07,16.86l-21.89,19.7c-1.63,1.44-3.28,2.86-4.93,4.29-7.41,6.41-15.06,13.04-21.82,20.71-.29.34-.56.67-.84,1.01-8.9-17.49-24.6-28.61-45.34-28.61-17.14,0-29.38,7.59-37.95,18.86h-.73v-15.18h-38.2v166.75h39.91v-54.36h.49c7.84,10.53,19.34,16.89,35.5,16.89,5.77,0,11.19-.81,16.22-2.35,1.06,4.3,2.44,8.7,4.18,13.23,1.17,3.66,2.93,5.35,4.48,6.84,1.09,1.05,2.04,1.96,2.92,3.64,1.17,2.2,2.79,3.97,4.36,5.69,1.03,1.13,2,2.19,2.76,3.25,1.83,2.83,4.16,4.43,6.41,5.98,1.13.78,2.2,1.51,3.11,2.3,2.21,2.21,4.61,3.22,6.93,4.19,1.33.56,2.6,1.09,3.66,1.75l.44.32c3.75,2.72,5.64,4.08,11.25,4.08,1.55,0,2.07.33,3.12.99.7.44,1.57,1,2.61,1.39,4.63,2.32,14.86,3.1,18.82,3.1,2.88,0,9.18-1.54,9.18-6.11,0-.98-.57-2-1.14-2.56l-.28-.24c-3.56-2.61-8.06-2.83-12.02-3.03l-1.05-.05c-5.71-.41-11.72-2-17.36-4.61-7.69-3.55-17.59-11.6-21.6-20.03-.79-1.84-1.98-3.34-3.13-4.78-1.01-1.27-1.96-2.47-2.59-3.8-.16-.36-.34-.75-.54-1.18-.75-1.6-1.88-4.02-1.88-5.3,0-.6.1-1.26.2-1.96.12-.84.24-1.7.24-2.64,0-2.62-.47-5.18-.92-7.66-.43-2.37-.84-4.61-.84-6.81,0-1.64.06-3.23.11-4.79.05-1.56.11-3.1.11-4.63,0-7.31,2.27-14.58,4.27-20.97l1.18-3.75c2.64-8.42,4.72-15.08,9.71-22.83,1.3-1.94,2.45-3.96,3.57-5.9,2.35-4.08,4.57-7.94,7.92-11.01,2.08-1.97,3.77-4.2,5.4-6.35,1.82-2.4,3.53-4.66,5.69-6.5.54-.46,1.07-.9,1.58-1.32,2.47-2.04,4.8-3.97,6.73-7.25,1.9-2.78,5.4-5.85,8.49-8.56,1.23-1.08,2.42-2.13,3.38-3.04,5.67-4.93,10.22-8.26,15.18-11.13,3.67-2.11,6.6-5.33,9.43-8.43,3-3.29,5.84-6.41,9.02-7.6,1.06-.37,1.86-.61,2.51-.8,2.36-.71,3.33-1.08,6.39-3.61l2.03-1.81c4.9-4.37,9.52-8.5,15.24-11.45,5.11-2.64,9.83-5.86,14.4-8.96,1.26-.86,2.53-1.72,3.91-2.65,1.01-.75,2.23-1.35,3.53-1.99,1.78-.87,3.61-1.76,5.17-3.18,3.52-3.14,7.54-5.43,11.8-7.86,2.78-1.58,5.65-3.22,8.34-5.1,2.13-1.42,6.52-4.36,6.52-8.32,0-2.79-1.21-6.11-6.98-6.11ZM217.92,183.41c-17.14,0-26.94-13.96-26.94-34.28s8.81-35.75,26.2-35.75,25.22,14.2,25.22,35.75-9.31,34.28-24.49,34.28Z"/>
  </g>
  <path class="st0" d="M377.59,197.51c.94,2.94-.49,6.15-2.45,8.54-1.97,2.38-4.48,4.29-6.3,6.79.08-2.36-.09-4.72-.51-7.04,2.53-.53,4.34-2.7,5.83-4.8,2.99-4.24,5.54-8.79,7.58-13.55-2.51.87-4.06,3.31-5.48,5.56-4.57,7.25-9.73,14.13-15.42,20.54,6.75-.7,13.2-4,17.71-9.07"/>
  <g>
    <path class="st0" d="M581.45,97.39c-10.77-9.79-24.97-15.67-42.85-15.67-38.2,0-64.4,28.65-64.4,66.11s25.47,66.6,66.85,66.6c15.92,0,28.65-4.16,39.18-11.51,11.02-7.59,18.37-18.37,21.06-29.63h-38.93c-3.43,7.84-10.29,12.49-20.81,12.49-16.41,0-25.71-10.53-28.16-27.42h90.11c.24-25.47-7.1-47.26-22.04-60.97ZM513.62,134.61c2.69-14.94,10.53-24.49,25.71-24.49,12.98,0,22.28,9.55,23.75,24.49h-49.46Z"/>
    <polygon class="st0" points="684.53 132.4 728.61 85.39 682.57 85.39 645.35 127.75 645.35 35.68 605.93 35.68 605.93 210.76 645.35 210.76 645.35 172.31 657.35 159.58 687.47 210.76 733.75 210.76 684.53 132.4"/>
    <path class="st0" d="M432.94,10.75c-1.16-.55-2.24-1.17-3.37-1.82-2.34-1.35-4.76-2.74-7.92-3.4-1.04-.21-2.06-.84-3.15-1.51-1.72-1.06-3.67-2.26-6.3-2.26-1.22,0-2.33.24-3.41.47-.96.21-1.86.4-2.73.4-1.71,0-3.5-.58-5.4-1.2-2.17-.7-4.41-1.43-6.87-1.43-5.44,0-10.27,5.99-10.27,10.71,0,9.62,9.69,9.62,13.34,9.62,8.56,0,18.28.41,25.38,5.27,2.62,1.82,7.94,8.05,9.02,10.57l.91,2.15c1.92,4.48,3.73,8.71,3.73,13.15,0,.81-.02,1.63-.05,2.46,0,.18-.02.35-.02.53-.29,6.3-1.49,13.29-3.74,21.78v.07c-1.12,4.22-2.5,8.81-4.18,13.89-1.29,4-2.3,8.17-3.29,12.2-2.05,8.37-4.16,17.02-8.79,24.4-2.6,4.34-5.3,8.83-7.53,13.52-.83,1.76-1.59,3.55-2.35,5.36-1.02,2.42-2.07,4.92-3.33,7.31-2.1,4.21-4.81,7.96-7.68,11.93-2.85,3.88-5.5,7.74-8.06,11.48-6.79,9.91-13.2,19.28-22.54,27.84-27.19,25.06-50.67,46.71-90.21,46.71-1.98,0-3.64-.39-5.1-.74-1.26-.3-2.45-.58-3.66-.58-2.9,0-5.01,1.74-5.01,4.13,0,8.52,21.88,8.96,26.27,8.96,11.22,0,20.69-1.69,28.11-5.01,6.73-2.86,14.59-6.3,21.9-10.18,4.7-2.53,8.9-5.83,12.95-9.02,3.5-2.76,7.13-5.61,10.98-7.88,8.86-5.02,14.35-11.16,20.17-17.66,3.03-3.38,6.15-6.88,9.83-10.25,4.9-4.4,8.76-9.95,12.49-15.33,2.97-4.27,6.03-8.69,9.59-12.44,5.41-5.86,9.7-12.64,13.85-19.19h0c1.83-2.94,3.71-6.47,5.59-10.41v65.41h40.4V35.68h-18.6c-3.66-11.37-10.85-20.1-20.95-24.93Z"/>
  </g>
</svg>