<?xml version="1.0" encoding="UTF-8"?>
<svg id="Vrstva_1" xmlns="http://www.w3.org/2000/svg" version="1.1" viewBox="0 0 273.15 315.32">
  <!-- Generator: Adobe Illustrator 30.2.1, SVG Export Plug-In . SVG Version: 2.1.1 Build 1)  -->
  <defs>
    <style>
      .st0 {
        fill: #fff;
      }
    </style>
  </defs>
  <g>
    <g>
      <path class="st0" d="M21.11,89.51c3.72-2.15,5.58-3.22,9.31-5.37,9-5.19,17.31,11.46,17.31,55.4s-8.23,70.43-17.26,75.65c-3.74,2.16-5.61,3.24-9.35,5.4V89.51ZM27.5,194.22c1.25-.72,1.88-1.08,3.13-1.8,5.64-3.26,10.7-20.61,10.7-49.18s-5.06-39.8-10.7-36.55c-1.25.72-1.88,1.08-3.13,1.8v85.73Z"/>
      <path class="st0" d="M86.83,116.96c0,38.6-8.09,74.56-18.39,80.51-10.33,5.97-18.39-20.68-18.39-59.28s8.05-74.26,18.39-80.23c10.3-5.95,18.39,20.49,18.39,59ZM56.49,134.47c0,25.49,5.27,43.8,11.94,39.95,6.72-3.88,11.94-28.16,11.94-53.74s-5.23-43.55-11.94-39.67c-6.67,3.85-11.94,28.16-11.94,53.46Z"/>
      <path class="st0" d="M96.45,130.52v46.56c-2.56,1.48-3.84,2.22-6.4,3.69V49.7c3.65-2.11,5.48-3.16,9.13-5.27,7.11-4.11,12.66,2.42,12.66,35.04,0,29.5-6.53,45.93-12.84,49.58-1.02.59-1.53.88-2.55,1.47ZM96.45,68.49v39.91c1.27-.73,1.9-1.1,3.17-1.83,3.5-2.02,5.88-10.99,5.86-23.43-.02-11.86-1.69-18.88-5.86-16.48-1.27.73-1.9,1.1-3.17,1.83Z"/>
      <path class="st0" d="M132.88,133.38c-5.92,3.42-8.88,5.13-14.81,8.55-.87,9.57-1.31,14.36-2.18,23.93-2.65,1.53-3.98,2.3-6.63,3.83,4.39-46.22,8.77-92.45,13.16-138.67,2.54-1.47,3.81-2.2,6.36-3.67,5.26,49.39,7.89,74.09,13.15,123.48-2.76,1.59-4.14,2.39-6.9,3.98-.86-8.57-1.29-12.86-2.15-21.43ZM130.96,114.25c-2.18-21.71-3.27-32.57-5.45-54.29-2.2,24.25-3.31,36.37-5.51,60.62,4.39-2.53,6.58-3.8,10.96-6.33Z"/>
    </g>
    <g>
      <path class="st0" d="M152.92,159.4c-3.02-1.74-4.53-2.61-7.55-4.36V15.54c3.15,1.82,4.72,2.73,7.87,4.55,5.19,31.51,7.79,47.28,12.98,78.79,4.98-25.65,7.47-38.47,12.44-64.11,3.11,1.8,4.66,2.69,7.78,4.49v139.51c-3.03-1.75-4.54-2.62-7.56-4.37v-93.14c-4.89,24.26-7.34,36.39-12.23,60.65-.43-.25-.64-.37-1.06-.61-5.07-30.21-7.6-45.31-12.67-75.53v93.64Z"/>
      <path class="st0" d="M191.64,42.25c3.05,1.76,4.57,2.64,7.62,4.4v139.51c-3.05-1.76-4.57-2.64-7.62-4.4V42.25Z"/>
      <path class="st0" d="M212.11,98.94v94.63c-3.04-1.76-4.56-2.63-7.61-4.39V49.68c3,1.73,4.5,2.6,7.51,4.33,7.7,42.06,11.55,63.09,19.25,105.15v-94.04c3.04,1.76,4.56,2.63,7.61,4.39v139.51c-2.93-1.69-4.4-2.54-7.34-4.24-7.77-42.34-11.65-63.51-19.42-105.85Z"/>
      <path class="st0" d="M244.05,72.51c8.68,5.01,13.02,7.52,21.71,12.53v23.63c-5.64-3.26-8.46-4.88-14.1-8.14v32.71c5.13,2.96,7.7,4.44,12.83,7.41v21.84c-5.13-2.96-7.69-4.44-12.83-7.41v37.79c5.81,3.36,8.72,5.03,14.53,8.39v23.53c-8.85-5.11-13.28-7.67-22.13-12.78V72.51Z"/>
    </g>
    <g>
      <path class="st0" d="M122.97,179.4c-2.5-1.43-3.75-2.15-6.25-3.59,7.78-4.52,11.67-6.78,19.44-11.29,7.74,4.44,11.6,6.66,19.34,11.1-7.78,4.52-11.67,6.78-19.44,11.29-2.5-1.44-3.76-2.16-6.26-3.59-37.56,21.82-56.34,32.73-93.9,54.54-2.73-1.57-4.09-2.35-6.82-3.92,37.56-21.82,56.34-32.73,93.9-54.54Z"/>
      <path class="st0" d="M138.49,231.15c-33.38,19.39-69.07,30.15-80.06,23.85-11.03-6.33,7.44-26.98,40.82-46.37,33.3-19.34,68.79-30.03,79.81-23.71,10.99,6.3-7.28,26.88-40.57,46.22ZM106.13,212.58c-22.04,12.8-34.88,26.76-27.76,30.84,7.17,4.11,31.05-3.32,53.25-16.22,21.88-12.71,34.69-26.59,27.52-30.7-7.12-4.08-31.13,3.37-53.01,16.08Z"/>
      <path class="st0" d="M95.52,276.28c-9.07-5.2,4.76-18.97,36.52-37.42,26.57-15.44,39.86-23.16,66.43-38.59,2.73,1.57,4.09,2.35,6.82,3.92-28.38,16.49-42.58,24.74-70.97,41.23-17.34,10.07-22.76,17.25-19.04,19.38,3.82,2.19,16.17-1.01,33.51-11.08,28.39-16.49,42.59-24.74,70.97-41.23,2.73,1.57,4.09,2.35,6.82,3.92-26.57,15.43-39.86,23.15-66.43,38.59-31.76,18.45-55.42,26.57-64.63,21.29Z"/>
      <path class="st0" d="M166.67,265c-.19-.11-.28-.16-.47-.27-16.59,9.64-24.89,14.46-41.48,24.09-2.73-1.57-4.09-2.35-6.82-3.92,37.78-21.95,75.56-43.89,113.34-65.84,3.7,2.12,5.55,3.19,9.26,5.31,7.31,4.19,2.93,13.47-22.99,28.53-16.28,9.46-30.57,13.89-40.01,14.46-13.47,12.96-20.21,19.45-33.67,32.41-3.3-1.9-4.96-2.84-8.26-4.74,12.45-12.02,18.67-18.02,31.12-30.04ZM218.62,234.29c-13.93,8.09-20.9,12.14-34.84,20.24,1.01.58,1.52.87,2.53,1.45,3.82,2.19,13.3-.51,24.07-6.77,10.13-5.88,14.81-11.15,10.81-13.44-1.03-.59-1.55-.89-2.58-1.48Z"/>
    </g>
  </g>
  <g>
    <rect class="st0" x="152.96" y="275.09" width="128.4" height="6.44" transform="translate(-115.08 159.03) rotate(-32.29)"/>
    <rect class="st0" x=".05" y="97.41" width="6.43" height="128.4"/>
    <polygon class="st0" points="269.27 69.06 272.44 63.47 161.58 .43 160.83 0 157.65 5.59 268.52 68.64 269.27 69.06"/>
  </g>
</svg>