<?xml version="1.0" encoding="UTF-8"?>
<svg id="Vrstva_1" xmlns="http://www.w3.org/2000/svg" version="1.1" viewBox="0 0 1495.44 420.66">
  <!-- Generator: Adobe Illustrator 30.2.1, SVG Export Plug-In . SVG Version: 2.1.1 Build 1)  -->
  <defs>
    <style>
      .st0 {
        fill: #fcf5e3;
      }
    </style>
  </defs>
  <path class="st0" d="M0,244.46c.87-33.1,1.85-65.47,2.51-97.85.37-18.12-.29-36.27.51-54.36.33-7.46,2.13-15.32,5.23-22.09,5.63-12.32,15.49-20.7,29.22-23.06,56.55-9.72,110.04-2.8,158.91,29.4,28.64,18.86,41.35,48.02,49.58,79.11,15,56.73-2.06,106.5-36.93,151.36-8.22,10.57-17.51,20.37-26.94,29.9-5.31,5.38-11.33,10.59-17.99,13.99-38.3,19.55-78.07,34.29-121.95,34.03-3.68-.02-7.38-.11-11.04-.53-16.94-1.94-26.02-11.05-26.84-28.54-1.75-37.35-2.9-74.72-4.27-111.37ZM63.52,328.96c-.43.08.61.02,1.57-.3,25.59-8.51,49.04-21.01,71.94-35.32,37.23-23.26,71.05-87.94,49.03-144.61-7.97-20.5-21.3-34.74-42.27-41.41-14.27-4.54-28.61-8.92-43.09-12.75-6.27-1.66-12.98-2.61-19.45-2.42-24.31.7-32.09,7.11-33.02,31.18-.94,24.12-.48,48.44,1.54,72.5,3.72,44.21,9.04,88.28,13.77,133.14Z"/>
  <path class="st0" d="M394.62,314.28c7.15-48.54,13.98-97.13,21.57-145.6,5.14-32.82,10.77-65.59,17.45-98.13,2.23-10.87,7.72-21.3,12.95-31.28,4.89-9.32,12.92-15.77,24.31-14.6,11.18,1.15,18.75,8.45,21.4,18.63,2.73,10.48,5.84,22.37,3.53,32.43-19.4,84.29-34.59,169.7-63.86,251.48-3.63,10.15-7.5,20.38-12.69,29.78-9.76,17.67-23.06,20.16-39.42,8.57-16.49-11.68-29.61-26.16-37.99-44.72-2.5-5.53-4.53-11.4-7.83-16.42-28.97-43.96-42.01-94.14-56.79-143.69-8.2-27.51-14.2-55.22-11.6-84.17.26-2.89.68-5.77.82-8.67.94-19.43,18.28-23.65,34.26-21.34,12.3,1.77,18.99,9.27,22.57,20.4,6.78,21.05,13.92,42.01,20.21,63.21,8.01,27.03,15.72,54.17,22.84,81.45,8.46,32.39,16.16,64.99,24.22,97.49.42,1.71,1.11,3.37,1.67,5.05.79.05,1.59.09,2.38.14Z"/>
  <path class="st0" d="M508.49,242.43c1.73-36.95,3.8-74.14,15.68-109.97,6.66-20.09,17.54-37.56,32.72-52.16,7.1-6.83,14.97-12.97,23.03-18.64,2.88-2.03,7.34-2.21,11.13-2.47,5.29-.37,10.73.67,15.93-.11,11.68-1.75,22.42.71,32.76,5.8,25.21,12.4,43.93,31,54.96,57.11,19.95,47.22,32.25,95.67,28.36,147.68-4.24,56.79-38.84,102.2-92.64,118.75-44.12,13.57-83.52-3.16-104.24-44.43-12.12-24.14-17.32-49.94-17.68-76.81-.11-8.14-.02-16.28-.02-24.74ZM598.12,105.31c-1.21,2.09-2.35,3.83-3.26,5.68-20.48,41.62-33.47,85.37-37.24,131.71-2.1,25.8-1.72,51.36,7.34,76.15,5.26,14.4,16.04,23.38,29.33,29.04,10.12,4.3,20.56,3.48,29.26-4.9,6.42-6.19,13.04-12.19,19.72-18.1,10.66-9.42,16.91-21.28,19.53-35.1,5.24-27.69,7.6-55.43,5.02-83.76-2.96-32.47-14.29-60.08-38.06-83.07-9.14-8.85-18.91-14.41-31.64-17.65Z"/>
  <path class="st0" d="M824.42,271.97c0,14.45.92,29.04-.33,43.45-.79,9.11-3.57,18.56-7.64,26.78-9.29,18.74-29.25,21.3-43.92,6.3-11.79-12.05-17.78-26.89-18.7-43.6-.52-9.35-.14-18.76,0-28.14.99-63.36,1.98-126.7,3.08-190.06.17-9.89.78-19.78,1.45-29.65.53-7.92,5.42-13.74,12.32-15.76,42.05-12.3,84.24-25.34,128.9-17.59,42.87,7.44,65.64,37.44,76.3,76.1,10.28,37.27-1.92,69.88-32.62,93.81-27.18,21.19-58,34.77-92.84,37.78-1.23.11-2.44.35-4.53.65,1.3,1.5,1.96,2.59,2.91,3.3,25.22,18.98,50.49,37.51,82.13,45.25,32.87,8.05,65.42,17.39,97.98,26.63,6.67,1.89,12.99,5.45,19.06,8.94,14.12,8.11,19.81,19.66,16.84,32.88-3.37,14.99-15.2,26.08-30.84,26.54-13.74.41-27.6-.72-41.31-2.08-24.15-2.4-45.6-12.25-65.76-25.31-34.82-22.55-69.17-45.72-99.71-74.04-1.1-1.02-2.35-1.88-2.75-2.19ZM797.41,80.64c2.73,30.92,5.34,61,8.21,91.06.17,1.83,2.12,4.3,3.86,5.06,12.58,5.46,25.64,8.28,39.55,7.36,30.85-2.05,54.07-17.75,72.7-40.94,9.21-11.46,10.88-24.99,5.78-39.18-7.59-21.15-22.94-32.86-44.76-34.94-29.17-2.78-57.62,1.82-85.35,11.59Z"/>
  <path class="st0" d="M1057.81,68.41c-3.82,24.13-7.57,47.82-11.58,73.2,5.68-2.15,9.75-3.82,13.9-5.24,11.47-3.91,22.77-8.66,34.54-11.21,6.59-1.43,14.47-.53,20.9,1.76,10.89,3.87,14.78,15.86,10,26.51-1.05,2.35-2.29,4.8-4.06,6.62-19.41,19.92-41.24,34.63-70.84,32.15-1.51-.13-3.03-.18-4.55-.18-.39,0-.77.29-1.92.75.66,24.43,7.2,47.79,14.81,72.2,5.27-3.21,9.65-5.84,13.99-8.53,27.1-16.79,54.2-33.6,81.3-50.38,12.3-7.62,25.29-13.4,39.92-14.71,19.7-1.77,31.39,12.73,25.35,31.58-4.11,12.82-12.56,22.66-22.33,31.48-16.74,15.11-36.35,25.39-57.73,31.75-20.33,6.06-41.09,10.76-61.78,15.51-6.04,1.39-12.52,1.28-18.78,1.22-20.07-.23-31.54-9.22-36.56-28.55-9.53-36.64-13.18-73.71-9.93-111.6,3.15-36.74,4.88-73.61,7.49-110.4.77-10.9-.05-22.08,6.45-32.06,4.67-7.16,11.13-10.2,18.66-6.2,3.44,1.82,5.79.72,8.98,0,19.67-4.41,39.32-9.05,59.21-12.24,11.66-1.87,23.79-2.2,35.6-1.44,18.73,1.21,26.27,18.38,14.48,33.06-4.69,5.84-11.47,10.92-18.35,13.94-27.32,12.01-55.49,21.32-87.17,21.03Z"/>
  <path class="st0" d="M1291.59,164.5c19.38-37.64,52.58-63.24,79.32-94.17,11.23-12.98,25.13-22.68,41.48-28.53,22.29-7.98,38.34,5.31,34.59,28.88-2.57,16.18-10.22,30.22-20.9,42.22-17.95,20.18-36.7,39.66-55.13,59.42-8.63,9.25-17.3,18.46-25.42,27.12,14.55,0,29.45-.44,44.3.2,6.76.29,13.86,1.68,20.07,4.31,48.59,20.57,79.66,54.47,83.67,109.53,1.7,23.35,4.82,46.58-4.89,68.9-3.68,8.46-8.1,16.67-13.01,24.48-2.59,4.12-6.5,7.81-10.59,10.52-12.12,8.03-28.13.59-28.82-13.86-.46-9.67,1.12-19.51,2.5-29.18,3.19-22.34,6.21-44.56.89-67.08-10.73-45.38-53.52-66.46-92.56-58.82-11.34,2.21-22.3,6.59-33.24,10.54-7.28,2.63-14.21,4.53-21.87-1.17-6.17,22.88-11.52,44.7-7.82,67.94,2.75,17.3,4.4,34.87-3.81,51.46-1.75,3.52-3.78,7.07-6.38,9.98-10.23,11.47-25.4,10.27-33.37-2.91-8.41-13.9-12.29-29.58-12.55-45.52-.6-36-1.46-72.11.5-108.03,2.74-50.22,7.92-100.31,12.15-150.45.31-3.68.87-7.46,2.13-10.89,1.25-3.4,2.83-8.29,5.47-9.28,11.27-4.2,22.87-9.35,34.58-9.99,11.16-.62,16.86,9.75,19.9,19.87,4.58,15.24,1.8,30.55-.96,45.65-2.99,16.37-6.79,32.58-10.24,48.86Z"/>
</svg>