<?xml version="1.0" encoding="UTF-8"?>
<svg id="Layer_1" xmlns="http://www.w3.org/2000/svg" version="1.1" viewBox="0 0 295.22 162.57">
  <!-- Generator: Adobe Illustrator 30.3.0, SVG Export Plug-In . SVG Version: 2.1.3 Build 182)  -->
  <defs>
    <style>
      .st0 {
        fill: #f48dad;
      }

      .st1 {
        fill: #527262;
      }

      .st2 {
        fill: #febc30;
      }
    </style>
  </defs>
  <g>
    <g>
      <path class="st1" d="M65.13,46.76c0,2.51.34,3.77,2.6,5.03,1.67.92,2.85,1.42,2.85,3.52s-.17,6.2-16.67,6.2c-3.69,0-14.41-.08-14.41-5.7-.33-6.45,5.86.67,5.86-16.33,0-4.52-1-4.35-5.19-4.35-11.72,0-10.64.33-10.64,7.87,0,11.47,5.19,6.87,5.19,12.31,0,5.86-12.23,6.2-16.25,6.2s-15.5-.34-15.5-6.03c0-1.76,1.26-2.85,2.68-3.52,3.01-1.42,4.1-1.17,4.1-18.68,0-22.28-.34-20.43-3.44-22.11-1.26-.67-2.76-1.42-2.76-3.1C3.58,1.62,17.56.94,22.25.94c3.52,0,13.23.42,13.23,5.44,0,2.6-1.42,3.52-3.35,4.69-2.09,1.17-2.6,2.18-2.6,9.63,0,4.69,2.18,4.1,6.2,4.1h4.27c5.53,0,5.36-.84,5.36-3.43,0-9.13-1.42-9.71-2.51-10.3-1.59-.92-3.1-1.68-3.1-3.85,0-1.59-.33-6.28,16.33-6.28,3.94,0,15.07.08,15.07,5.95,0,1.84-.92,3.1-2.6,3.94-2.51,1.09-3.43.84-3.43,14.15v21.77Z"/>
      <path class="st1" d="M73.85,41.23c0-14.99,13.15-23.45,26.97-23.45,14.66,0,23.03,11.47,23.03,21.86,0,13.73-14.74,22.11-27.05,22.11s-22.95-7.29-22.95-20.52ZM97.22,27.66c-2.77,0-4.27,2.6-4.1,5.03.33,5.28,1.84,18.17,7.62,18.51,3.18.17,3.85-2.51,3.85-5.19,0-3.77-1.68-18.34-7.37-18.34Z"/>
      <path class="st1" d="M150.57,42.48c0,3.35.25,8.54,4.78,8.54,6.03,0,5.19-7.87,5.19-11.89,0-2.76.08-6.36-.34-9.04-.67-4.19-4.77-2.76-4.77-6.28,0-4.94,16.83-5.78,20.02-5.78,3.01,0,4.27,1.76,4.27,4.69,0,2.68-.17,5.28-.17,7.96v16.83c0,5.03,4.61,2.68,4.61,6.7,0,5.69-14.82,7.29-19.43,7.29-6.45,0-2.18-5.03-5.53-5.03-.92,0-2.26,1.26-4.27,2.51-2.01,1.26-4.69,2.51-8.37,2.51-15.91,0-14.57-12.56-14.57-25.12s-5.78-7.2-5.78-12.73,21.1-5.61,21.77-5.61c2.35,0,2.6,1.09,2.6,3.18v21.27Z"/>
      <path class="st1" d="M209.45,21.63c0,.42-.08,1.34.59,1.34.42,0,1.76-1.34,3.93-2.6,2.18-1.34,5.11-2.6,8.79-2.6,8.88,0,16.42,7.45,16.42,18.51,0,14.32-10.72,25.46-25.13,25.46-10.55,0-15.49-5.44-16.83-5.44s-2.68,1.26-5.44,1.26c-1.17,0-2.51-.34-2.51-1.68s1.68-4.02,1.68-14.91v-22.28c0-4.86-6.28-2.68-6.28-7.45,0-5.61,16.25-9.38,23.2-9.38,2.26,0,2.18,1.76,2.09,3.6l-.5,16.16ZM213.72,30.68c-3.68,0-4.1,3.02-4.1,5.86,0,16.25.92,17.59,4.27,17.59,5.53,0,6.45-6.28,6.45-10.55,0-3.94-1.09-12.9-6.62-12.9Z"/>
      <path class="st1" d="M277.97,53.54c-4.1,11.14-9.46,22.03-23.11,22.03-6.03,0-13.15-3.1-13.15-10.05,0-4.19,3.18-7.7,7.45-7.7,7.79,0,5.61,8.88,9.04,8.88,2.26,0,3.27-2.18,3.27-4.1,0-2.34-1.68-5.53-2.68-7.62l-11.72-24.54c-1.59-3.35-6.36-2.34-6.36-6.2,0-2.51,1.51-6.2,19.18-6.2,3.18,0,10.72.34,10.72,5.11,0,2.26-1.93,2.93-1.93,4.94,0,3.18,3.69,9.04,5.11,9.04,2.51,0,4.27-5.78,4.27-7.79,0-3.77-2.68-3.52-2.68-6.36,0-4.44,7.87-4.94,10.89-4.94,2.77,0,8.96.42,8.96,4.27,0,4.94-5.02,2.76-7.95,7.71-1.84,2.93-3.18,6.62-4.36,9.88l-4.94,13.65Z"/>
    </g>
    <g>
      <path class="st1" d="M17.11,147.2c-6.02,0-10.88-4.85-10.88-10.88s4.85-10.88,10.88-10.88,10.88,4.86,10.88,10.88-4.86,10.88-10.88,10.88Z"/>
      <path class="st1" d="M57.29,100.54c1.62.27,3.06.63,3.69.63.9,0,1.62-.27,2.43-.63.81-.27,1.62-.54,2.43-.54,4.14,0,8.27,8.27,8.27,11.96,0,2.43-2.07,4.23-4.41,4.23-5.12,0-8-7.1-11.96-7.1-1.62,0-3.24,1.35-3.24,3.06,0,5.75,19.78,6.83,19.78,20.77,0,8.45-8.18,14.3-17.53,14.3-1.8,0-4.41-.27-6.65-.63-2.25-.27-4.23-.54-4.77-.54-.63,0-1.17.09-1.8.18-.54.09-1.08.18-1.71.18-1.8,0-2.7-.27-3.96-1.71-2.25-2.52-4.49-7.64-4.49-11.06,0-2.34.81-4.23,3.42-4.23,3.96,0,7.55,8.9,12.59,8.9,1.8,0,3.51-.9,3.51-2.88,0-5.3-17.62-5.93-17.62-20.77,0-8.99,7.37-14.65,16.63-14.65,1.8,0,3.69.18,5.39.54Z"/>
      <path class="st1" d="M84.25,128.14c0-9.44-.54-11.51-.99-11.96-1.17-1.17-6.02,0-6.02-5.13,0-6.11,18.52-10.79,25.17-10.79,2.16,0,2.52.72,2.52,2.7,0,.63.09,1.89.99,1.89,1.26,0,6.29-4.86,13.67-4.86,11.78,0,18.07,11.78,18.07,22.3,0,12.05-8.54,24.91-21.67,24.91-4.23,0-8.45-2.25-9.26-2.25-1.26,0-1.44,1.89-1.44,2.88,0,6.83,5.57,4.67,5.57,9.08,0,5.04-8.18,5.66-11.69,5.66-12.05,0-21.49-4.4-21.49-8.99,0-4.05,3.69-2.52,5.3-6.02.9-1.89,1.26-4.5,1.26-14.48v-4.95ZM108.89,113.3c-3.24,0-4.32,1.35-4.32,17.71,0,2.97,1.44,4.05,4.59,4.05,5.57,0,6.29-6.02,6.29-10.34s-.9-11.42-6.56-11.42Z"/>
      <path class="st1" d="M186.11,124.45c0,15.82,5.39,7.19,5.39,12.05,0,5.12-7.01,10.7-13.58,10.7-7.1,0-7.28-4.59-9.53-4.59-1.08,0-2.25,1.17-4.22,2.25-1.98,1.17-4.68,2.34-8.81,2.34-7.46,0-14.92-3.96-14.92-12.86,0-6.38,6.11-14.3,21.94-14.3,2.79,0,4.05.18,4.05-3.06,0-2.97-.09-9.17-4.23-9.17-5.39,0-5.93,9.71-13.94,9.71-2.88,0-5.04-2.07-5.04-4.94,0-7.64,15.19-12.59,23.74-12.59,5.12,0,19.15,1.98,19.15,15.46v8.99ZM159.14,132.36c0,2.34,1.26,4.85,3.87,4.85,3.42,0,3.69-3.69,3.69-6.38,0-1.98.09-4.23-2.43-4.23-3.06,0-5.13,2.88-5.13,5.75Z"/>
      <path class="st1" d="M220.63,100c13.49,0,20.59,7.46,20.59,13.76,0,5.04-3.78,8.9-8.81,8.9-9.71,0-5.21-11.15-12.32-11.15-3.95,0-6.11,4.05-6.11,7.64,0,6.65,4.94,13.4,12.05,13.4,5.66,0,7.55-2.34,9.44-2.34,2.43,0,4.05,2.7,4.05,4.85,0,5.3-8.09,12.14-20.68,12.14-13.58,0-24.55-9.98-24.55-23.74,0-12.95,11.24-23.47,26.34-23.47Z"/>
      <path class="st1" d="M266.2,125.26c-.99,0-2.43-.27-2.43,1.26,0,4.49,5.84,8.27,10.07,8.27,6.74,0,10.07-4.04,11.96-4.04s3.51,2.79,3.51,4.49c0,6.92-12.68,11.96-20.77,11.96-16.18,0-24.55-11.69-24.55-23.29,0-13.85,11.78-23.92,25.27-23.92,15.28,0,22.03,11.78,22.03,18.52,0,5.93-2.7,6.74-5.57,6.74h-19.51ZM274.02,113.93c0-3.24-1.98-5.75-5.3-5.75-2.97,0-5.39,3.06-5.39,5.93,0,3.24,3.06,2.52,5.39,2.52s5.3.54,5.3-2.7Z"/>
    </g>
  </g>
  <g>
    <g>
      <path class="st2" d="M62.14,45.81c0,2.51.34,3.77,2.6,5.03,1.67.92,2.85,1.42,2.85,3.52s-.17,6.2-16.67,6.2c-3.69,0-14.41-.08-14.41-5.7-.33-6.45,5.86.67,5.86-16.33,0-4.52-1-4.35-5.19-4.35-11.72,0-10.64.33-10.64,7.87,0,11.47,5.19,6.87,5.19,12.31,0,5.86-12.23,6.2-16.25,6.2s-15.5-.34-15.5-6.03c0-1.76,1.26-2.85,2.68-3.52,3.01-1.42,4.1-1.17,4.1-18.68,0-22.28-.34-20.43-3.44-22.11-1.26-.67-2.76-1.42-2.76-3.1C.59.67,14.57,0,19.26,0c3.52,0,13.23.42,13.23,5.44,0,2.6-1.42,3.52-3.35,4.69-2.09,1.17-2.6,2.18-2.6,9.63,0,4.69,2.18,4.1,6.2,4.1h4.27c5.53,0,5.36-.84,5.36-3.43,0-9.13-1.42-9.71-2.51-10.3-1.59-.92-3.1-1.68-3.1-3.85,0-1.59-.33-6.28,16.33-6.28,3.94,0,15.07.08,15.07,5.95,0,1.84-.92,3.1-2.6,3.94-2.51,1.09-3.43.84-3.43,14.15v21.77Z"/>
      <path class="st2" d="M70.86,40.28c0-14.99,13.15-23.45,26.97-23.45,14.66,0,23.03,11.47,23.03,21.86,0,13.73-14.74,22.11-27.05,22.11s-22.95-7.29-22.95-20.52ZM94.23,26.72c-2.77,0-4.27,2.6-4.1,5.03.33,5.28,1.84,18.17,7.62,18.51,3.18.17,3.85-2.51,3.85-5.19,0-3.77-1.68-18.34-7.37-18.34Z"/>
      <path class="st2" d="M147.58,41.54c0,3.35.25,8.54,4.78,8.54,6.03,0,5.19-7.87,5.19-11.89,0-2.76.08-6.36-.34-9.04-.67-4.19-4.77-2.76-4.77-6.28,0-4.94,16.83-5.78,20.02-5.78,3.01,0,4.27,1.76,4.27,4.69,0,2.68-.17,5.28-.17,7.96v16.83c0,5.03,4.61,2.68,4.61,6.7,0,5.69-14.82,7.29-19.43,7.29-6.45,0-2.18-5.03-5.53-5.03-.92,0-2.26,1.26-4.27,2.51-2.01,1.26-4.69,2.51-8.37,2.51-15.91,0-14.57-12.56-14.57-25.12s-5.78-7.2-5.78-12.73,21.1-5.61,21.77-5.61c2.35,0,2.6,1.09,2.6,3.18v21.27Z"/>
      <path class="st2" d="M206.46,20.69c0,.42-.08,1.34.59,1.34.42,0,1.76-1.34,3.93-2.6,2.18-1.34,5.11-2.6,8.79-2.6,8.88,0,16.42,7.45,16.42,18.51,0,14.32-10.72,25.46-25.13,25.46-10.55,0-15.49-5.44-16.83-5.44s-2.68,1.26-5.44,1.26c-1.17,0-2.51-.34-2.51-1.68s1.68-4.02,1.68-14.91v-22.28c0-4.86-6.28-2.68-6.28-7.45,0-5.61,16.25-9.38,23.2-9.38,2.26,0,2.18,1.76,2.09,3.6l-.5,16.16ZM210.73,29.73c-3.68,0-4.1,3.02-4.1,5.86,0,16.25.92,17.59,4.27,17.59,5.53,0,6.45-6.28,6.45-10.55,0-3.94-1.09-12.9-6.62-12.9Z"/>
      <path class="st2" d="M274.98,52.59c-4.1,11.14-9.46,22.03-23.11,22.03-6.03,0-13.15-3.1-13.15-10.05,0-4.19,3.18-7.7,7.45-7.7,7.79,0,5.61,8.88,9.04,8.88,2.26,0,3.27-2.18,3.27-4.1,0-2.34-1.68-5.53-2.68-7.62l-11.72-24.54c-1.59-3.35-6.36-2.34-6.36-6.2,0-2.51,1.51-6.2,19.18-6.2,3.18,0,10.72.34,10.72,5.11,0,2.26-1.93,2.93-1.93,4.94,0,3.18,3.69,9.04,5.11,9.04,2.51,0,4.27-5.78,4.27-7.79,0-3.77-2.68-3.52-2.68-6.36,0-4.44,7.87-4.94,10.89-4.94,2.77,0,8.96.42,8.96,4.27,0,4.94-5.02,2.76-7.95,7.71-1.84,2.93-3.18,6.62-4.36,9.88l-4.94,13.65Z"/>
    </g>
    <g>
      <path class="st0" d="M14.11,146.25c-6.02,0-10.88-4.85-10.88-10.88s4.85-10.88,10.88-10.88,10.88,4.86,10.88,10.88-4.86,10.88-10.88,10.88Z"/>
      <path class="st0" d="M54.3,99.59c1.62.27,3.06.63,3.69.63.9,0,1.62-.27,2.43-.63.81-.27,1.62-.54,2.43-.54,4.14,0,8.27,8.27,8.27,11.96,0,2.43-2.07,4.23-4.41,4.23-5.12,0-8-7.1-11.96-7.1-1.62,0-3.24,1.35-3.24,3.06,0,5.75,19.78,6.83,19.78,20.77,0,8.45-8.18,14.3-17.53,14.3-1.8,0-4.41-.27-6.65-.63-2.25-.27-4.23-.54-4.77-.54-.63,0-1.17.09-1.8.18-.54.09-1.08.18-1.71.18-1.8,0-2.7-.27-3.96-1.71-2.25-2.52-4.49-7.64-4.49-11.06,0-2.34.81-4.23,3.42-4.23,3.96,0,7.55,8.9,12.59,8.9,1.8,0,3.51-.9,3.51-2.88,0-5.3-17.62-5.93-17.62-20.77,0-8.99,7.37-14.65,16.63-14.65,1.8,0,3.69.18,5.39.54Z"/>
      <path class="st0" d="M81.26,127.19c0-9.44-.54-11.51-.99-11.96-1.17-1.17-6.02,0-6.02-5.13,0-6.11,18.52-10.79,25.17-10.79,2.16,0,2.52.72,2.52,2.7,0,.63.09,1.89.99,1.89,1.26,0,6.29-4.86,13.67-4.86,11.78,0,18.07,11.78,18.07,22.3,0,12.05-8.54,24.91-21.67,24.91-4.23,0-8.45-2.25-9.26-2.25-1.26,0-1.44,1.89-1.44,2.88,0,6.83,5.57,4.67,5.57,9.08,0,5.04-8.18,5.66-11.69,5.66-12.05,0-21.49-4.4-21.49-8.99,0-4.05,3.69-2.52,5.3-6.02.9-1.89,1.26-4.5,1.26-14.48v-4.95ZM105.9,112.36c-3.24,0-4.32,1.35-4.32,17.71,0,2.97,1.44,4.05,4.59,4.05,5.57,0,6.29-6.02,6.29-10.34s-.9-11.42-6.56-11.42Z"/>
      <path class="st0" d="M183.12,123.51c0,15.82,5.39,7.19,5.39,12.05,0,5.12-7.01,10.7-13.58,10.7-7.1,0-7.28-4.59-9.53-4.59-1.08,0-2.25,1.17-4.23,2.25-1.98,1.17-4.68,2.34-8.81,2.34-7.46,0-14.92-3.96-14.92-12.86,0-6.38,6.11-14.3,21.94-14.3,2.79,0,4.05.18,4.05-3.06,0-2.97-.09-9.17-4.23-9.17-5.39,0-5.93,9.71-13.94,9.71-2.88,0-5.04-2.07-5.04-4.94,0-7.64,15.19-12.59,23.74-12.59,5.12,0,19.15,1.98,19.15,15.46v8.99ZM156.15,131.42c0,2.34,1.26,4.85,3.87,4.85,3.42,0,3.69-3.69,3.69-6.38,0-1.98.09-4.23-2.43-4.23-3.06,0-5.13,2.88-5.13,5.75Z"/>
      <path class="st0" d="M217.64,99.05c13.49,0,20.59,7.46,20.59,13.76,0,5.04-3.78,8.9-8.81,8.9-9.71,0-5.21-11.15-12.32-11.15-3.96,0-6.11,4.05-6.11,7.64,0,6.65,4.94,13.4,12.05,13.4,5.66,0,7.55-2.34,9.44-2.34,2.43,0,4.05,2.7,4.05,4.85,0,5.3-8.09,12.14-20.68,12.14-13.58,0-24.55-9.98-24.55-23.74,0-12.95,11.24-23.47,26.34-23.47Z"/>
      <path class="st0" d="M263.21,124.31c-.99,0-2.43-.27-2.43,1.26,0,4.49,5.84,8.27,10.07,8.27,6.74,0,10.07-4.04,11.96-4.04s3.51,2.79,3.51,4.49c0,6.92-12.68,11.96-20.77,11.96-16.18,0-24.55-11.69-24.55-23.29,0-13.85,11.78-23.92,25.27-23.92,15.28,0,22.03,11.78,22.03,18.52,0,5.93-2.7,6.74-5.57,6.74h-19.51ZM271.03,112.99c0-3.24-1.98-5.75-5.3-5.75-2.97,0-5.39,3.06-5.39,5.93,0,3.24,3.06,2.52,5.39,2.52s5.3.54,5.3-2.7Z"/>
    </g>
  </g>
</svg>