<?xml version="1.0" encoding="UTF-8"?>
<svg id="Vrstva_1" xmlns="http://www.w3.org/2000/svg" version="1.1" viewBox="0 0 789.16 453.24">
  <!-- Generator: Adobe Illustrator 30.2.1, SVG Export Plug-In . SVG Version: 2.1.1 Build 1)  -->
  <defs>
    <style>
      .st0 {
        fill: #4f6f5e;
      }

      .st1 {
        fill: #f18fb1;
      }

      .st2 {
        fill: #fcbe1b;
      }
    </style>
  </defs>
  <g>
    <g>
      <path class="st0" d="M176.08,129.08c0,6.7.9,10.04,6.92,13.39,4.46,2.46,7.59,3.79,7.59,9.37s-.45,16.52-44.41,16.52c-9.82,0-38.39-.23-38.39-15.18-.89-17.18,15.62,1.79,15.62-43.51,0-12.05-2.68-11.6-13.83-11.6-31.24,0-28.35.89-28.35,20.98,0,30.57,13.84,18.3,13.84,32.8,0,15.62-32.58,16.52-43.29,16.52s-41.29-.9-41.29-16.07c0-4.69,3.35-7.59,7.14-9.37,8.03-3.79,10.94-3.12,10.94-49.76,0-59.36-.9-54.45-9.15-58.91-3.35-1.79-7.36-3.79-7.36-8.26C12.06,8.8,49.33,7.01,61.83,7.01c9.37,0,35.26,1.12,35.26,14.51,0,6.92-3.79,9.37-8.93,12.5-5.58,3.12-6.92,5.8-6.92,25.66,0,12.5,5.81,10.94,16.52,10.94h11.38c14.73,0,14.28-2.23,14.28-9.15,0-24.32-3.79-25.89-6.69-27.45-4.24-2.46-8.26-4.46-8.26-10.27,0-4.24-.89-16.74,43.51-16.74,10.49,0,40.17.23,40.17,15.85,0,4.91-2.45,8.25-6.92,10.49-6.69,2.9-9.14,2.23-9.14,37.71v58.02Z"/>
      <path class="st0" d="M199.31,114.35c0-39.95,35.04-62.49,71.85-62.49,39.05,0,61.37,30.57,61.37,58.24,0,36.6-39.27,58.91-72.08,58.91s-61.14-19.41-61.14-54.67ZM261.58,78.2c-7.37,0-11.39,6.92-10.94,13.39.89,14.06,4.9,48.42,20.31,49.32,8.48.44,10.27-6.7,10.27-13.84,0-10.04-4.47-48.87-19.64-48.87Z"/>
      <path class="st0" d="M403.74,117.7c0,8.93.67,22.76,12.73,22.76,16.06,0,13.83-20.98,13.83-31.69,0-7.36.23-16.96-.9-24.1-1.78-11.16-12.72-7.36-12.72-16.74,0-13.16,44.85-15.4,53.34-15.4,8.03,0,11.38,4.69,11.38,12.5,0,7.14-.44,14.06-.44,21.2v44.85c0,13.39,12.27,7.14,12.27,17.85,0,15.17-39.5,19.41-51.77,19.41-17.18,0-5.81-13.39-14.73-13.39-2.45,0-6.02,3.35-11.38,6.69-5.35,3.35-12.49,6.7-22.31,6.7-42.4,0-38.83-33.47-38.83-66.95s-15.39-19.19-15.39-33.92,56.23-14.95,58.01-14.95c6.25,0,6.92,2.9,6.92,8.48v56.68Z"/>
      <path class="st0" d="M560.63,62.13c0,1.12-.22,3.57,1.56,3.57,1.11,0,4.69-3.57,10.48-6.92,5.81-3.57,13.61-6.92,23.43-6.92,23.65,0,43.74,19.86,43.74,49.32,0,38.16-28.56,67.84-66.95,67.84-28.12,0-41.28-14.51-44.85-14.51s-7.14,3.35-14.51,3.35c-3.12,0-6.69-.9-6.69-4.46s4.47-10.71,4.47-39.72v-59.36c0-12.94-16.74-7.14-16.74-19.86,0-14.95,43.3-24.99,61.81-24.99,6.03,0,5.81,4.69,5.58,9.6l-1.34,43.07ZM572.01,86.23c-9.81,0-10.93,8.04-10.93,15.62,0,43.29,2.45,46.87,11.38,46.87,14.73,0,17.18-16.74,17.18-28.12,0-10.49-2.9-34.37-17.64-34.37Z"/>
      <path class="st0" d="M743.2,147.15c-10.94,29.68-25.22,58.69-61.59,58.69-16.07,0-35.04-8.26-35.04-26.78,0-11.16,8.48-20.53,19.86-20.53,20.75,0,14.95,23.65,24.1,23.65,6.03,0,8.71-5.8,8.71-10.94,0-6.25-4.47-14.73-7.14-20.31l-31.24-65.38c-4.24-8.93-16.96-6.25-16.96-16.51,0-6.7,4.02-16.52,51.1-16.52,8.48,0,28.56.9,28.56,13.61,0,6.03-5.14,7.81-5.14,13.17,0,8.48,9.82,24.1,13.61,24.1,6.7,0,11.39-15.4,11.39-20.75,0-10.04-7.14-9.37-7.14-16.96,0-11.83,20.98-13.17,29.01-13.17,7.37,0,23.88,1.12,23.88,11.38,0,13.16-13.39,7.36-21.19,20.53-4.91,7.81-8.48,17.63-11.6,26.33l-13.17,36.37Z"/>
    </g>
    <g>
      <path class="st0" d="M48.11,396.71c-16.05,0-28.98-12.93-28.98-28.98s12.93-28.98,28.98-28.98,28.98,12.93,28.98,28.98-12.93,28.98-28.98,28.98Z"/>
      <path class="st0" d="M155.17,272.39c4.31.72,8.14,1.68,9.82,1.68,2.4,0,4.31-.72,6.47-1.68,2.16-.72,4.31-1.44,6.47-1.44,11.02,0,22.04,22.04,22.04,31.86,0,6.47-5.51,11.26-11.74,11.26-13.65,0-21.32-18.92-31.86-18.92-4.31,0-8.62,3.59-8.62,8.14,0,15.33,52.7,18.21,52.7,55.33,0,22.52-21.8,38.09-46.71,38.09-4.79,0-11.74-.72-17.73-1.68-5.99-.72-11.26-1.44-12.7-1.44-1.68,0-3.11.24-4.79.48-1.44.24-2.87.48-4.55.48-4.79,0-7.19-.72-10.54-4.55-5.99-6.71-11.98-20.36-11.98-29.46,0-6.23,2.16-11.26,9.1-11.26,10.54,0,20.12,23.71,33.54,23.71,4.79,0,9.34-2.4,9.34-7.67,0-14.13-46.95-15.81-46.95-55.33,0-23.95,19.64-39.04,44.31-39.04,4.79,0,9.82.48,14.37,1.44Z"/>
      <path class="st0" d="M227.03,345.93c0-25.15-1.44-30.66-2.63-31.86-3.11-3.11-16.05,0-16.05-13.65,0-16.29,49.34-28.74,67.07-28.74,5.75,0,6.71,1.92,6.71,7.19,0,1.68.24,5.03,2.64,5.03,3.35,0,16.77-12.93,36.41-12.93,31.38,0,48.15,31.38,48.15,59.4,0,32.1-22.76,66.35-57.73,66.35-11.26,0-22.52-5.99-24.67-5.99-3.35,0-3.83,5.03-3.83,7.67,0,18.2,14.85,12.46,14.85,24.19,0,13.41-21.8,15.09-31.14,15.09-32.1,0-57.25-11.74-57.25-23.95,0-10.78,9.82-6.71,14.13-16.05,2.4-5.03,3.35-11.98,3.35-38.56v-13.17ZM292.66,306.41c-8.62,0-11.5,3.59-11.5,47.19,0,7.91,3.83,10.78,12.22,10.78,14.85,0,16.77-16.05,16.77-27.55s-2.39-30.42-17.49-30.42Z"/>
      <path class="st0" d="M498.42,336.11c0,42.16,14.37,19.16,14.37,32.1,0,13.65-18.68,28.5-36.17,28.5-18.92,0-19.4-12.22-25.39-12.22-2.87,0-5.99,3.11-11.26,5.99-5.27,3.11-12.46,6.23-23.47,6.23-19.88,0-39.76-10.54-39.76-34.25,0-17.01,16.29-38.09,58.45-38.09,7.42,0,10.78.48,10.78-8.14,0-7.9-.24-24.43-11.26-24.43-14.37,0-15.81,25.87-37.13,25.87-7.67,0-13.41-5.51-13.41-13.17,0-20.36,40.48-33.54,63.24-33.54,13.65,0,51.02,5.27,51.02,41.2v23.95ZM426.56,357.19c0,6.23,3.35,12.93,10.3,12.93,9.1,0,9.82-9.82,9.82-17.01,0-5.27.24-11.26-6.47-11.26-8.14,0-13.65,7.67-13.65,15.33Z"/>
      <path class="st0" d="M590.4,270.96c35.93,0,54.85,19.88,54.85,36.65,0,13.41-10.06,23.71-23.47,23.71-25.87,0-13.89-29.7-32.82-29.7-10.54,0-16.29,10.78-16.29,20.36,0,17.73,13.17,35.69,32.1,35.69,15.09,0,20.12-6.23,25.15-6.23,6.47,0,10.78,7.19,10.78,12.93,0,14.13-21.56,32.34-55.09,32.34-36.17,0-65.39-26.59-65.39-63.24,0-34.49,29.94-62.52,70.18-62.52Z"/>
      <path class="st0" d="M711.84,338.26c-2.63,0-6.47-.72-6.47,3.35,0,11.98,15.57,22.04,26.83,22.04,17.96,0,26.83-10.78,31.86-10.78s9.34,7.43,9.34,11.98c0,18.44-33.77,31.86-55.33,31.86-43.12,0-65.39-31.14-65.39-62.04,0-36.89,31.38-63.72,67.31-63.72,40.72,0,58.69,31.38,58.69,49.34,0,15.81-7.19,17.96-14.85,17.96h-51.98ZM732.68,308.08c0-8.62-5.27-15.33-14.13-15.33-7.9,0-14.37,8.14-14.37,15.81,0,8.62,8.14,6.71,14.37,6.71s14.13,1.44,14.13-7.19Z"/>
    </g>
  </g>
  <g>
    <g>
      <path class="st2" d="M165.59,122.06c0,6.7.9,10.04,6.92,13.39,4.46,2.46,7.59,3.79,7.59,9.37s-.45,16.52-44.41,16.52c-9.82,0-38.39-.23-38.39-15.18-.89-17.18,15.62,1.79,15.62-43.51,0-12.05-2.68-11.6-13.83-11.6-31.24,0-28.35.89-28.35,20.98,0,30.57,13.84,18.3,13.84,32.8,0,15.62-32.58,16.52-43.29,16.52S0,160.45,0,145.27c0-4.69,3.35-7.59,7.14-9.37,8.03-3.79,10.94-3.12,10.94-49.76,0-59.36-.9-54.45-9.15-58.91-3.35-1.79-7.36-3.79-7.36-8.26C1.57,1.79,38.83,0,51.33,0c9.37,0,35.26,1.12,35.26,14.51,0,6.92-3.79,9.37-8.93,12.5-5.58,3.12-6.92,5.8-6.92,25.66,0,12.5,5.81,10.94,16.52,10.94h11.38c14.73,0,14.28-2.23,14.28-9.15,0-24.32-3.79-25.89-6.69-27.45-4.24-2.46-8.26-4.46-8.26-10.27,0-4.24-.89-16.74,43.51-16.74,10.49,0,40.17.23,40.17,15.85,0,4.91-2.45,8.25-6.92,10.49-6.69,2.9-9.14,2.23-9.14,37.71v58.02Z"/>
      <path class="st2" d="M188.82,107.34c0-39.95,35.04-62.49,71.85-62.49,39.05,0,61.37,30.57,61.37,58.24,0,36.6-39.27,58.91-72.08,58.91s-61.14-19.41-61.14-54.67ZM251.08,71.19c-7.37,0-11.39,6.92-10.94,13.39.89,14.06,4.9,48.42,20.31,49.32,8.48.44,10.27-6.7,10.27-13.84,0-10.04-4.47-48.87-19.64-48.87Z"/>
      <path class="st2" d="M393.24,110.69c0,8.93.67,22.76,12.73,22.76,16.06,0,13.83-20.98,13.83-31.69,0-7.36.23-16.96-.9-24.1-1.78-11.16-12.72-7.36-12.72-16.74,0-13.16,44.85-15.4,53.34-15.4,8.03,0,11.38,4.69,11.38,12.5,0,7.14-.44,14.06-.44,21.2v44.85c0,13.39,12.27,7.14,12.27,17.85,0,15.17-39.5,19.41-51.77,19.41-17.18,0-5.81-13.39-14.73-13.39-2.45,0-6.02,3.35-11.38,6.69-5.35,3.35-12.49,6.7-22.31,6.7-42.4,0-38.83-33.47-38.83-66.95s-15.39-19.19-15.39-33.92,56.23-14.95,58.01-14.95c6.25,0,6.92,2.9,6.92,8.48v56.68Z"/>
      <path class="st2" d="M550.13,55.12c0,1.12-.22,3.57,1.56,3.57,1.11,0,4.69-3.57,10.48-6.92,5.81-3.57,13.61-6.92,23.43-6.92,23.65,0,43.74,19.86,43.74,49.32,0,38.16-28.56,67.84-66.95,67.84-28.12,0-41.28-14.51-44.85-14.51s-7.14,3.35-14.51,3.35c-3.12,0-6.69-.9-6.69-4.46s4.47-10.71,4.47-39.72v-59.36c0-12.94-16.74-7.14-16.74-19.86,0-14.95,43.3-24.99,61.81-24.99,6.03,0,5.81,4.69,5.58,9.6l-1.34,43.07ZM561.51,79.22c-9.81,0-10.93,8.04-10.93,15.62,0,43.29,2.45,46.87,11.38,46.87,14.73,0,17.18-16.74,17.18-28.12,0-10.49-2.9-34.37-17.64-34.37Z"/>
      <path class="st2" d="M732.7,140.14c-10.94,29.68-25.22,58.69-61.59,58.69-16.07,0-35.04-8.26-35.04-26.78,0-11.16,8.48-20.53,19.86-20.53,20.75,0,14.95,23.65,24.1,23.65,6.03,0,8.71-5.8,8.71-10.94,0-6.25-4.47-14.73-7.14-20.31l-31.24-65.38c-4.24-8.93-16.96-6.25-16.96-16.51,0-6.7,4.02-16.52,51.1-16.52,8.48,0,28.56.9,28.56,13.61,0,6.03-5.14,7.81-5.14,13.17,0,8.48,9.82,24.1,13.61,24.1,6.7,0,11.39-15.4,11.39-20.75,0-10.04-7.14-9.37-7.14-16.96,0-11.83,20.98-13.17,29.01-13.17,7.37,0,23.88,1.12,23.88,11.38,0,13.16-13.39,7.36-21.19,20.53-4.91,7.81-8.48,17.63-11.6,26.33l-13.17,36.37Z"/>
    </g>
    <g>
      <path class="st1" d="M37.61,389.69c-16.05,0-28.98-12.93-28.98-28.98s12.93-28.98,28.98-28.98,28.98,12.93,28.98,28.98-12.93,28.98-28.98,28.98Z"/>
      <path class="st1" d="M144.67,265.38c4.31.72,8.14,1.68,9.82,1.68,2.4,0,4.31-.72,6.47-1.68,2.16-.72,4.31-1.44,6.47-1.44,11.02,0,22.04,22.04,22.04,31.86,0,6.47-5.51,11.26-11.74,11.26-13.65,0-21.32-18.92-31.86-18.92-4.31,0-8.62,3.59-8.62,8.14,0,15.33,52.7,18.21,52.7,55.33,0,22.52-21.8,38.09-46.71,38.09-4.79,0-11.74-.72-17.73-1.68-5.99-.72-11.26-1.44-12.7-1.44-1.68,0-3.11.24-4.79.48-1.44.24-2.87.48-4.55.48-4.79,0-7.19-.72-10.54-4.55-5.99-6.71-11.98-20.36-11.98-29.46,0-6.23,2.16-11.26,9.1-11.26,10.54,0,20.12,23.71,33.54,23.71,4.79,0,9.34-2.4,9.34-7.67,0-14.13-46.95-15.81-46.95-55.33,0-23.95,19.64-39.04,44.31-39.04,4.79,0,9.82.48,14.37,1.44Z"/>
      <path class="st1" d="M216.53,338.91c0-25.15-1.44-30.66-2.63-31.86-3.11-3.11-16.05,0-16.05-13.65,0-16.29,49.34-28.74,67.07-28.74,5.75,0,6.71,1.92,6.71,7.19,0,1.68.24,5.03,2.64,5.03,3.35,0,16.77-12.93,36.41-12.93,31.38,0,48.15,31.38,48.15,59.4,0,32.1-22.76,66.35-57.73,66.35-11.26,0-22.52-5.99-24.67-5.99-3.35,0-3.83,5.03-3.83,7.67,0,18.2,14.85,12.46,14.85,24.19,0,13.41-21.8,15.09-31.14,15.09-32.1,0-57.25-11.74-57.25-23.95,0-10.78,9.82-6.71,14.13-16.05,2.4-5.03,3.35-11.98,3.35-38.56v-13.17ZM282.16,299.39c-8.62,0-11.5,3.59-11.5,47.19,0,7.91,3.83,10.78,12.22,10.78,14.85,0,16.77-16.05,16.77-27.55s-2.39-30.42-17.49-30.42Z"/>
      <path class="st1" d="M487.92,329.09c0,42.16,14.37,19.16,14.37,32.1,0,13.65-18.68,28.5-36.17,28.5-18.92,0-19.4-12.22-25.39-12.22-2.87,0-5.99,3.11-11.26,5.99-5.27,3.11-12.46,6.23-23.47,6.23-19.88,0-39.76-10.54-39.76-34.25,0-17.01,16.29-38.09,58.45-38.09,7.42,0,10.78.48,10.78-8.14,0-7.9-.24-24.43-11.26-24.43-14.37,0-15.81,25.87-37.13,25.87-7.67,0-13.41-5.51-13.41-13.17,0-20.36,40.48-33.54,63.24-33.54,13.65,0,51.02,5.27,51.02,41.2v23.95ZM416.06,350.17c0,6.23,3.35,12.93,10.3,12.93,9.1,0,9.82-9.82,9.82-17.01,0-5.27.24-11.26-6.47-11.26-8.14,0-13.65,7.67-13.65,15.33Z"/>
      <path class="st1" d="M579.9,263.94c35.93,0,54.85,19.88,54.85,36.65,0,13.41-10.06,23.71-23.47,23.71-25.87,0-13.89-29.7-32.82-29.7-10.54,0-16.29,10.78-16.29,20.36,0,17.73,13.17,35.69,32.1,35.69,15.09,0,20.12-6.23,25.15-6.23,6.47,0,10.78,7.19,10.78,12.93,0,14.13-21.56,32.34-55.09,32.34-36.17,0-65.39-26.59-65.39-63.24,0-34.49,29.94-62.52,70.18-62.52Z"/>
      <path class="st1" d="M701.34,331.25c-2.63,0-6.47-.72-6.47,3.35,0,11.98,15.57,22.04,26.83,22.04,17.96,0,26.83-10.78,31.86-10.78s9.34,7.43,9.34,11.98c0,18.44-33.77,31.86-55.33,31.86-43.12,0-65.39-31.14-65.39-62.04,0-36.89,31.38-63.72,67.31-63.72,40.72,0,58.69,31.38,58.69,49.34,0,15.81-7.19,17.96-14.85,17.96h-51.98ZM722.18,301.07c0-8.62-5.27-15.33-14.13-15.33-7.9,0-14.37,8.14-14.37,15.81,0,8.62,8.14,6.71,14.37,6.71s14.13,1.44,14.13-7.19Z"/>
    </g>
  </g>
</svg>