<?xml version="1.0" encoding="UTF-8"?>
<svg id="Vrstva_1" xmlns="http://www.w3.org/2000/svg" version="1.1" viewBox="0 0 837.08 164.33">
  <!-- Generator: Adobe Illustrator 30.2.1, SVG Export Plug-In . SVG Version: 2.1.1 Build 1)  -->
  <defs>
    <style>
      .st0 {
        fill: #bcddc7;
      }

      .st1 {
        fill: #eef5f1;
      }
    </style>
  </defs>
  <path class="st0" d="M86.33,113.51l2.25-4.38,14.12-27.25c2.63-6.07,1.62-8.32-2.43-8.32-1.47,0-1.49-1.97,0-1.97h14.38c1.49,0,1.44,1.97,0,1.97-6.35,0-8.58,6.16-11.03,10.72-4.3,8.3-8.6,16.63-12.93,24.95l-11.16,21.54c-5.21,8.47-12.22,20.62-24.72,19.47-19.79-1.81-3.21-21.16,1.95-10.91,6.2,12.3,15.79-.75,20.9-9.43l-19.41-37.53c-6.02-12.13-11.72-20.64-27.79-20.64s-23.69,16.81,8.63,24.45c29.66,7.01,24.45,35.69-7.39,35.69C19.54,131.88,0,127.74,0,116.31c0-8.04,13.92-7.9,13.92.42.03,11.69,9.44,13.57,17.67,13.57,14.55,0,19.61-13.66,3.55-18.81-4.3-1.39-8.68-1.97-13.08-3.6C-3.74,98.37,1.57,69.78,30.45,69.78c24.4,0,34.52,2.49,45.43,23.54l10.45,20.2h0Z"/>
  <path class="st0" d="M173.69,116.03v-28.5c0-17.78-28.5-14.22-28.5-1.95,0,.78-.05,6.59-.05,7.5v25.66c.28,7.38,1.9,9.34,6.1,9.34,1.44,0,1.49,2,0,2h-29.43c-1.49,0-1.44-2,0-2,4.68,0,6.15-2.4,6.15-12.04l.05.28v-30.71c0-9.64-1.47-12.04-6.15-12.04-1.47,0-1.49-2,0-2h1.42c8.07,0,16.65,8.58,21.87,0v8.04c11.77-15.8,45.71-12.09,45.71,8.32v28.1c0,9.64,1.47,12.04,6.12,12.04,1.47,0,1.49,2,0,2h-29.41c-1.49,0-1.47-2,0-2,4.66,0,6.13-2.4,6.13-12.04h0Z"/>
  <path class="st0" d="M252.12,130.07v-6.42c-4.1,4.94-10.3,8.18-18.42,8.18-19.08,0-28.67-15.92-28.52-31.65.18-15.31,9.59-30.43,28.52-30.43,8.15,0,14.4,3.13,18.42,8.4v-22.95c0-9.64-1.47-12.04-6.15-12.04-1.44,0-1.49-2,0-2h1.44c7.44,0,15.36,7.34,20.63,1.67,14.25-20.95,48.04-10.53,39.79,17-.78,3.9-4.45,6.84-8.86,6.84-4.99,0-9.01-3.74-9.01-8.38s4.02-8.35,9.01-8.35c3.36,0,6.3,1.72,7.85,4.26,2.15-19.54-20.32-26.67-33.58-14.35-4.28,3.97-3.97,13.26-3.97,21.31v54.86c0,9.64,1.47,12.04,6.15,12.04,1.44,0,1.5,2,0,2h-1.44c-8.05,0-16.75-8.67-21.84,0h0ZM252.12,111.89v-25.09h-.05v-.09c0-7.83-6.17-13.87-14.17-13.92-8.88-.04-15.79,10.51-15.23,27.82.56,17.12,6.86,27.28,15.67,26.92,7.26-.31,13.74-5.43,13.74-11.95,0-.38.03-2.38.05-3.69h0ZM306.1,116.03c0,9.64,1.47,12.04,6.15,12.04,1.44,0,1.5,2,0,2h-29.43c-1.49,0-1.44-2,0-2,4.68,0,6.15-2.4,6.15-12.04v-30.4c0-9.64-1.47-12.06-6.15-12.06-1.44,0-1.49-1.97,0-1.97h1.44c8.05,0,16.76,8.14,21.84,0v44.44Z"/>
  <path class="st0" d="M344.39,99.36l7.09-7.01,9.85-9.73h-.03c6.58-6.49,8-9.05,3.34-9.05-1.47,0-1.49-2,0-2h15.23c1.5,0,1.47,2,0,2-4.65,0-8.83,1.55-15.18,7.86l5.9-7.43-2.45,2.26-3.47,5.17h.03l-10.53,10.39c9.09-1.29,14-.45,16.65,5.41l8.5,18.7-.03-.05c4.08,8.93,7.85,12.21,12.5,12.21,1.47,0,1.52,2,0,2h-14.7c-8.53,0-9.85-3.64-12.12-8.04l-12.83-28.22-7.75,7.66v17.26c.28,7.38,1.9,9.34,6.1,9.34,1.44,0,1.5,2,0,2h-29.43c-1.49,0-1.44-2,0-2,4.68,0,6.15-2.4,6.15-12.04l.05.28v-63.91c0-9.64-1.47-12.04-6.15-12.04-1.44,0-1.5-2,0-2h1.44c8.05,0,16.3,8.35,21.84,0v61h0Z"/>
  <path class="st0" d="M418.21,79.35c2.76,9.08-13.64,8.46-11.26.7,1.92-6.37,11.69-10.18,22.32-10.44,14.63-.37,30.65,5.71,30.9,21.33v25.09c0,9.64,1.47,12.04,6.15,12.04,1.44,0,1.49,2,0,2h-1.44c-8.05,0-16.75-8.67-21.84,0v-6.42c-4.1,4.93-10.3,8.16-18.43,8.16-37.71,0-37.96-42.14,0-42.14,8.15,0,14.4,3.13,18.43,8.39v-6.82c0-15.03-7.44-19.85-14.2-19.87-6.2-.03-11.84,4.02-10.63,7.97h0ZM442.99,106.62c0-7.83-6.17-13.89-14.17-13.92-21.29-.12-19.79,35.62.43,34.8,7.26-.28,13.74-5.43,13.74-11.92,0-2.99.03-5.97,0-8.96Z"/>
  <path class="st0" d="M475.4,64.04c0-9.64-1.47-12.04-6.15-12.04-1.44,0-1.49-2,0-2h1.44c8.07,0,12.86,8.37,21.84,0v21.56h12.32v2h-12.32v43.33c0,13.24,13.92,12.32,17.01,2.33.28-1.31,2.1-.89,1.8.17-4.88,16.95-35.94,18.65-35.94-7.66v-38.16h-2.68v-2h2.68v-7.53Z"/>
  <path class="st1" d="M528.39,130.07c-4.83,0-8.78-3.65-8.78-8.14s3.95-8.16,8.78-8.16,8.76,3.67,8.76,8.16-3.92,8.14-8.76,8.14Z"/>
  <path class="st0" d="M570.55,118.74c.3,7.38,1.9,9.34,6.1,9.34,1.47,0,1.49,2,0,2h-29.41c-1.52,0-1.47-2,0-2,4.66,0,6.12-2.4,6.12-12.04l.05.28v-63.91c0-9.64-1.47-12.04-6.12-12.04-1.47,0-1.52-2,0-2h1.42c8.07,0,16.32,8.35,21.84,0v80.37Z"/>
  <path class="st0" d="M619.32,69.76c24.17,0,31.48,16.93,21.49,17.14l-36.98.68c-1.01,3.6-1.57,7.55-1.7,11.55-1.39,45.1,37.86,31.62,33.48,19.77-3.24-8.7,12.48-9.92,11.21-.7-2.56,18.98-64.41,23.58-61.85-19.26.89-14.88,12.32-29.18,34.34-29.18h0ZM635.98,84.92c-6.23-16.41-25.08-18.67-31.53.66l31.53-.66Z"/>
  <path class="st0" d="M687.76,69.76c42.16,0,41.96,52.2,0,52.2-1.11,0-2.2-.05-3.26-.12v.12c-24.8,0-32.85,13.38,3.97,5.08,31.08-7.01,43.4,20.13,14.5,34.16-10.98,5.34-35.08,4.3-42.52-6.56-6.2-9.03,10.48-13.36,13.29-4.54,4.68,14.67,20.75,13.4,28.22,9.78,13.21-6.42,9.69-20.46-7.97-17.84-4.71.7-9.03,2.12-13.99,2.66-29.94,3.2-32.87-20.43-4.2-24.43-29.31-8.96-27.21-50.51,11.97-50.51h0ZM687.76,119.96c21.64,0,16.76-48.18,0-48.18-19.54,0-19.89,48.18,0,48.18ZM692.62,69.28c2.23-7.8,11.9-13.5,20.05-9.03,8.2,4.49-.18,14.67-7.21,8-3.57-3.36-9.79-2.64-12.83,1.03Z"/>
  <path class="st0" d="M750.14,79.35c2.76,9.08-13.64,8.46-11.26.7,1.92-6.37,11.69-10.18,22.32-10.44,14.63-.37,30.65,5.71,30.9,21.33v25.09c0,9.64,1.47,12.04,6.15,12.04,1.44,0,1.49,2,0,2h-1.44c-8.05,0-16.75-8.67-21.84,0v-6.42c-4.1,4.93-10.3,8.16-18.43,8.16-37.71,0-37.96-42.14,0-42.14,8.15,0,14.4,3.13,18.43,8.39v-6.82c0-15.03-7.44-19.85-14.2-19.87-6.2-.03-11.84,4.02-10.63,7.97h0ZM774.92,106.62c0-7.83-6.17-13.89-14.17-13.92-21.29-.12-19.79,35.62.43,34.8,7.26-.28,13.74-5.43,13.74-11.92,0-2.99.03-5.97,0-8.96Z"/>
  <path class="st0" d="M829.87,118.74c.3,7.38,1.9,9.34,6.1,9.34,1.47,0,1.49,2,0,2h-29.41c-1.52,0-1.47-2,0-2,4.66,0,6.12-2.4,6.12-12.04l.05.28v-63.91c0-9.64-1.47-12.04-6.12-12.04-1.47,0-1.52-2,0-2h1.42c8.07,0,16.32,8.35,21.84,0v80.37Z"/>
  <g>
    <rect class="st0" width="519.51" height="6.32"/>
    <rect class="st0" x="537.58" width="299.5" height="6.32"/>
  </g>
</svg>